<svg xmlns="http://www.w3.org/2000/svg" width="117.75" viewBox="0 0 117.75 145.5" height="145.5" version="1.0"><defs><clipPath id="a"><path d="M 5.558594 1.308594 L 111.921875 1.308594 L 111.921875 144.371094 L 5.558594 144.371094 Z M 5.558594 1.308594"/></clipPath><clipPath id="b"><path d="M 36 64.480469 L 82 64.480469 L 82 114.664062 L 36 114.664062 Z M 36 64.480469"/></clipPath></defs><g clip-path="url(#a)"><path fill="#FFFAE3" d="M 17.351562 1.308594 L 100.132812 1.308594 C 100.90625 1.308594 101.671875 1.386719 102.429688 1.535156 C 103.1875 1.6875 103.925781 1.914062 104.636719 2.210938 C 105.351562 2.507812 106.03125 2.871094 106.675781 3.304688 C 107.316406 3.734375 107.914062 4.226562 108.460938 4.777344 C 109.007812 5.324219 109.496094 5.921875 109.925781 6.570312 C 110.355469 7.214844 110.714844 7.898438 111.011719 8.617188 C 111.308594 9.335938 111.53125 10.074219 111.683594 10.835938 C 111.832031 11.597656 111.910156 12.367188 111.910156 13.144531 L 111.910156 132.535156 C 111.910156 133.3125 111.832031 134.082031 111.683594 134.84375 C 111.53125 135.605469 111.308594 136.347656 111.011719 137.0625 C 110.714844 137.78125 110.355469 138.464844 109.925781 139.109375 C 109.496094 139.757812 109.007812 140.355469 108.460938 140.90625 C 107.914062 141.453125 107.316406 141.945312 106.675781 142.375 C 106.03125 142.808594 105.351562 143.171875 104.636719 143.46875 C 103.925781 143.769531 103.1875 143.992188 102.429688 144.144531 C 101.671875 144.296875 100.90625 144.371094 100.132812 144.371094 L 17.351562 144.371094 C 16.578125 144.371094 15.8125 144.296875 15.050781 144.144531 C 14.292969 143.992188 13.558594 143.769531 12.84375 143.46875 C 12.128906 143.171875 11.449219 142.808594 10.804688 142.375 C 10.164062 141.945312 9.570312 141.453125 9.023438 140.90625 C 8.476562 140.355469 7.988281 139.757812 7.558594 139.109375 C 7.128906 138.464844 6.765625 137.78125 6.46875 137.0625 C 6.171875 136.347656 5.949219 135.605469 5.796875 134.84375 C 5.648438 134.082031 5.570312 133.3125 5.570312 132.535156 L 5.570312 13.144531 C 5.570312 12.367188 5.648438 11.597656 5.796875 10.835938 C 5.949219 10.074219 6.171875 9.335938 6.46875 8.617188 C 6.765625 7.898438 7.128906 7.214844 7.558594 6.570312 C 7.988281 5.921875 8.476562 5.324219 9.023438 4.777344 C 9.570312 4.226562 10.164062 3.734375 10.804688 3.304688 C 11.449219 2.871094 12.128906 2.507812 12.84375 2.210938 C 13.558594 1.914062 14.292969 1.6875 15.050781 1.535156 C 15.8125 1.386719 16.578125 1.308594 17.351562 1.308594 Z M 17.351562 1.308594"/></g><g clip-path="url(#b)"><path fill="#995D1F" d="M 79.648438 100.644531 C 78.695312 102.421875 76.339844 103.277344 73.128906 103.277344 C 71.648438 103.277344 69.988281 103.09375 68.195312 102.738281 C 68.742188 100.601562 69.148438 98.273438 69.402344 95.824219 C 71.800781 94.203125 73.957031 92.476562 75.773438 90.714844 C 79.359375 94.539062 80.957031 98.207031 79.648438 100.644531 Z M 67.890625 94.921875 C 66.449219 95.871094 64.910156 96.785156 63.285156 97.65625 C 61.832031 98.433594 60.378906 99.132812 58.949219 99.75 C 57.519531 99.132812 56.070312 98.433594 54.617188 97.65625 C 52.992188 96.785156 51.453125 95.871094 50.007812 94.921875 C 49.851562 93.207031 49.769531 91.417969 49.769531 89.582031 C 49.769531 87.742188 49.851562 85.957031 50.007812 84.242188 C 51.453125 83.292969 52.992188 82.375 54.617188 81.507812 C 56.070312 80.730469 57.519531 80.03125 58.949219 79.410156 C 60.378906 80.03125 61.832031 80.730469 63.285156 81.507812 C 64.910156 82.375 66.449219 83.292969 67.890625 84.242188 C 68.046875 85.957031 68.128906 87.742188 68.128906 89.582031 C 68.128906 91.417969 68.046875 93.207031 67.890625 94.921875 Z M 66.636719 102.390625 C 64.839844 101.949219 62.941406 101.347656 60.980469 100.585938 C 61.996094 100.113281 63.019531 99.601562 64.039062 99.058594 C 65.289062 98.390625 66.5 97.6875 67.664062 96.957031 C 67.414062 98.894531 67.066406 100.714844 66.636719 102.390625 Z M 58.949219 113.007812 C 55.996094 113.007812 53.375 109.453125 51.691406 103.929688 C 54.011719 103.359375 56.457031 102.539062 58.949219 101.488281 C 61.441406 102.539062 63.886719 103.359375 66.207031 103.929688 C 64.527344 109.453125 61.902344 113.007812 58.949219 113.007812 Z M 50.234375 96.957031 C 51.398438 97.6875 52.609375 98.390625 53.859375 99.058594 C 54.878906 99.601562 55.902344 100.113281 56.917969 100.585938 C 54.960938 101.347656 53.058594 101.949219 51.261719 102.390625 C 50.832031 100.714844 50.484375 98.894531 50.234375 96.957031 Z M 48.496094 83.335938 C 46.097656 84.957031 43.941406 86.6875 42.125 88.445312 C 38.539062 84.625 36.941406 80.953125 38.25 78.515625 C 39.207031 76.742188 41.558594 75.882812 44.769531 75.882812 C 46.25 75.882812 47.914062 76.066406 49.703125 76.425781 C 49.160156 78.5625 48.753906 80.890625 48.496094 83.335938 Z M 48.316406 93.761719 C 46.402344 92.394531 44.699219 90.984375 43.246094 89.582031 C 44.699219 88.175781 46.402344 86.765625 48.316406 85.398438 C 48.222656 86.769531 48.175781 88.164062 48.175781 89.582031 C 48.175781 90.996094 48.222656 92.390625 48.316406 93.761719 Z M 44.769531 103.277344 C 41.558594 103.277344 39.207031 102.421875 38.25 100.644531 C 36.941406 98.207031 38.539062 94.539062 42.125 90.714844 C 43.941406 92.476562 46.097656 94.203125 48.496094 95.824219 C 48.753906 98.273438 49.160156 100.601562 49.703125 102.738281 C 47.914062 103.09375 46.25 103.277344 44.769531 103.277344 Z M 51.261719 76.773438 C 53.058594 77.210938 54.960938 77.816406 56.917969 78.574219 C 55.902344 79.050781 54.878906 79.558594 53.859375 80.101562 C 52.609375 80.773438 51.398438 81.476562 50.234375 82.207031 C 50.484375 80.269531 50.832031 78.445312 51.261719 76.773438 Z M 58.949219 66.152344 C 61.902344 66.152344 64.527344 69.707031 66.207031 75.230469 C 63.886719 75.800781 61.441406 76.625 58.949219 77.671875 C 56.457031 76.625 54.011719 75.800781 51.691406 75.230469 C 53.375 69.707031 55.996094 66.152344 58.949219 66.152344 Z M 67.664062 82.207031 C 66.5 81.476562 65.289062 80.773438 64.039062 80.101562 C 63.019531 79.558594 61.996094 79.050781 60.980469 78.574219 C 62.941406 77.816406 64.839844 77.210938 66.636719 76.773438 C 67.066406 78.445312 67.414062 80.269531 67.664062 82.207031 Z M 69.582031 85.398438 C 71.496094 86.765625 73.203125 88.175781 74.652344 89.582031 C 73.203125 90.984375 71.496094 92.398438 69.582031 93.761719 C 69.675781 92.394531 69.726562 90.996094 69.726562 89.582031 C 69.726562 88.164062 69.675781 86.769531 69.582031 85.398438 Z M 73.128906 75.882812 C 76.339844 75.882812 78.695312 76.742188 79.648438 78.515625 C 80.957031 80.953125 79.359375 84.625 75.773438 88.445312 C 73.957031 86.6875 71.800781 84.957031 69.402344 83.335938 C 69.148438 80.890625 68.742188 78.5625 68.195312 76.425781 C 69.984375 76.066406 71.648438 75.882812 73.128906 75.882812 Z M 77.867188 90.660156 C 77.558594 90.300781 77.230469 89.941406 76.890625 89.582031 C 77.230469 89.222656 77.558594 88.863281 77.867188 88.5 C 81.414062 84.351562 82.546875 80.539062 81.054688 77.765625 C 80.203125 76.179688 78.136719 74.292969 73.128906 74.292969 C 71.484375 74.292969 69.675781 74.492188 67.765625 74.878906 C 67.507812 74.027344 67.230469 73.207031 66.929688 72.433594 C 64.9375 67.355469 62.105469 64.5625 58.949219 64.5625 C 55.792969 64.5625 52.960938 67.355469 50.972656 72.433594 C 50.667969 73.207031 50.390625 74.027344 50.132812 74.878906 C 48.21875 74.492188 46.417969 74.292969 44.769531 74.292969 L 44.769531 75.882812 L 44.769531 74.292969 C 39.761719 74.292969 37.695312 76.179688 36.84375 77.765625 C 35.355469 80.539062 36.488281 84.351562 40.035156 88.5 C 40.339844 88.863281 40.671875 89.222656 41.007812 89.582031 C 40.671875 89.941406 40.339844 90.300781 40.035156 90.660156 C 36.488281 94.808594 35.355469 98.621094 36.84375 101.398438 C 37.695312 102.980469 39.761719 104.871094 44.769531 104.871094 C 46.414062 104.871094 48.21875 104.667969 50.132812 104.28125 C 50.390625 105.132812 50.667969 105.953125 50.972656 106.726562 C 52.960938 111.804688 55.792969 114.601562 58.949219 114.601562 C 62.105469 114.601562 64.9375 111.804688 66.929688 106.726562 C 67.230469 105.953125 67.507812 105.132812 67.765625 104.28125 C 69.675781 104.667969 71.484375 104.871094 73.128906 104.871094 C 78.136719 104.871094 80.203125 102.980469 81.054688 101.398438 C 82.546875 98.621094 81.414062 94.808594 77.867188 90.660156"/></g><path fill="#FFCD81" d="M 54.527344 89.582031 C 54.527344 87.144531 56.503906 85.167969 58.949219 85.167969 C 61.394531 85.167969 63.375 87.144531 63.375 89.582031 C 63.375 92.019531 61.394531 93.996094 58.949219 93.996094 C 56.503906 93.996094 54.527344 92.019531 54.527344 89.582031"/><path fill="#FF8181" d="M 52.394531 76.59375 C 52.394531 77.769531 53.347656 78.722656 54.527344 78.722656 C 55.703125 78.722656 56.660156 77.769531 56.660156 76.59375 C 56.660156 75.417969 55.703125 74.464844 54.527344 74.464844 C 53.347656 74.464844 52.394531 75.417969 52.394531 76.59375"/><path fill="#FF8181" d="M 77.074219 85.753906 C 77.074219 86.929688 78.027344 87.882812 79.207031 87.882812 C 80.382812 87.882812 81.339844 86.929688 81.339844 85.753906 C 81.339844 84.578125 80.382812 83.625 79.207031 83.625 C 78.027344 83.625 77.074219 84.578125 77.074219 85.753906"/><path fill="#FF8181" d="M 41.203125 103.535156 C 41.203125 104.710938 42.160156 105.664062 43.335938 105.664062 C 44.515625 105.664062 45.472656 104.710938 45.472656 103.535156 C 45.472656 102.359375 44.515625 101.40625 43.335938 101.40625 C 42.160156 101.40625 41.203125 102.359375 41.203125 103.535156"/><g fill="#E9AE70"><g><g><path d="M 8.484375 -2.140625 L 3.828125 -2.140625 L 2.953125 0 L -0.21875 0 L 4.640625 -11.015625 L 7.703125 -11.015625 L 12.59375 0 L 9.34375 0 Z M 7.5625 -4.4375 L 6.15625 -7.96875 L 4.734375 -4.4375 Z M 7.5625 -4.4375" transform="translate(25.069 35.462)"/></g></g></g><g fill="#E9AE70"><g><g><path d="M 3.453125 -8.546875 L 0.0625 -8.546875 L 0.0625 -11.015625 L 9.921875 -11.015625 L 9.921875 -8.546875 L 6.5625 -8.546875 L 6.5625 0 L 3.453125 0 Z M 3.453125 -8.546875" transform="translate(37.432 35.462)"/></g></g></g><g fill="#E9AE70"><g><g><path d="M 6.65625 0.21875 C 5.488281 0.21875 4.441406 -0.0234375 3.515625 -0.515625 C 2.585938 -1.015625 1.859375 -1.695312 1.328125 -2.5625 C 0.796875 -3.4375 0.53125 -4.414062 0.53125 -5.5 C 0.53125 -6.59375 0.796875 -7.570312 1.328125 -8.4375 C 1.859375 -9.3125 2.585938 -9.992188 3.515625 -10.484375 C 4.441406 -10.984375 5.488281 -11.234375 6.65625 -11.234375 C 7.820312 -11.234375 8.867188 -10.984375 9.796875 -10.484375 C 10.722656 -9.992188 11.453125 -9.3125 11.984375 -8.4375 C 12.515625 -7.570312 12.78125 -6.59375 12.78125 -5.5 C 12.78125 -4.414062 12.515625 -3.4375 11.984375 -2.5625 C 11.453125 -1.695312 10.722656 -1.015625 9.796875 -0.515625 C 8.867188 -0.0234375 7.820312 0.21875 6.65625 0.21875 Z M 6.65625 -2.359375 C 7.207031 -2.359375 7.707031 -2.488281 8.15625 -2.75 C 8.613281 -3.007812 8.972656 -3.378906 9.234375 -3.859375 C 9.492188 -4.335938 9.625 -4.882812 9.625 -5.5 C 9.625 -6.125 9.492188 -6.675781 9.234375 -7.15625 C 8.972656 -7.632812 8.613281 -8.003906 8.15625 -8.265625 C 7.707031 -8.523438 7.207031 -8.65625 6.65625 -8.65625 C 6.101562 -8.65625 5.597656 -8.523438 5.140625 -8.265625 C 4.691406 -8.003906 4.335938 -7.632812 4.078125 -7.15625 C 3.816406 -6.675781 3.6875 -6.125 3.6875 -5.5 C 3.6875 -4.882812 3.816406 -4.335938 4.078125 -3.859375 C 4.335938 -3.378906 4.691406 -3.007812 5.140625 -2.75 C 5.597656 -2.488281 6.101562 -2.359375 6.65625 -2.359375 Z M 6.65625 -2.359375" transform="translate(47.42 35.462)"/></g></g></g><g fill="#E9AE70"><g><g><path d="M 11.046875 0 L 11.015625 -5.84375 L 8.1875 -1.078125 L 6.796875 -1.078125 L 3.984375 -5.6875 L 3.984375 0 L 1.09375 0 L 1.09375 -11.015625 L 3.671875 -11.015625 L 7.53125 -4.65625 L 11.3125 -11.015625 L 13.875 -11.015625 L 13.90625 0 Z M 11.046875 0" transform="translate(60.727 35.462)"/></g></g></g><g fill="#E9AE70"><g><g><path d="M 1.09375 -11.015625 L 4.21875 -11.015625 L 4.21875 0 L 1.09375 0 Z M 1.09375 -11.015625" transform="translate(75.733 35.462)"/></g></g></g><g fill="#E9AE70"><g><g><path d="M 6.59375 0.21875 C 5.4375 0.21875 4.398438 -0.0234375 3.484375 -0.515625 C 2.566406 -1.003906 1.84375 -1.679688 1.3125 -2.546875 C 0.789062 -3.421875 0.53125 -4.40625 0.53125 -5.5 C 0.53125 -6.601562 0.789062 -7.585938 1.3125 -8.453125 C 1.84375 -9.328125 2.566406 -10.007812 3.484375 -10.5 C 4.398438 -10.988281 5.4375 -11.234375 6.59375 -11.234375 C 7.601562 -11.234375 8.507812 -11.054688 9.3125 -10.703125 C 10.125 -10.347656 10.796875 -9.832031 11.328125 -9.15625 L 9.34375 -7.359375 C 8.632812 -8.222656 7.769531 -8.65625 6.75 -8.65625 C 6.15625 -8.65625 5.625 -8.523438 5.15625 -8.265625 C 4.6875 -8.003906 4.320312 -7.632812 4.0625 -7.15625 C 3.8125 -6.675781 3.6875 -6.125 3.6875 -5.5 C 3.6875 -4.882812 3.8125 -4.335938 4.0625 -3.859375 C 4.320312 -3.378906 4.6875 -3.007812 5.15625 -2.75 C 5.625 -2.488281 6.15625 -2.359375 6.75 -2.359375 C 7.769531 -2.359375 8.632812 -2.789062 9.34375 -3.65625 L 11.328125 -1.859375 C 10.796875 -1.179688 10.125 -0.664062 9.3125 -0.3125 C 8.507812 0.0390625 7.601562 0.21875 6.59375 0.21875 Z M 6.59375 0.21875" transform="translate(81.065 35.462)"/></g></g></g><g fill="#E9AE70"><g><g><path d="M 11.578125 -11.015625 L 11.578125 0 L 8.46875 0 L 8.46875 -4.296875 L 4.21875 -4.296875 L 4.21875 0 L 1.09375 0 L 1.09375 -11.015625 L 4.21875 -11.015625 L 4.21875 -6.875 L 8.46875 -6.875 L 8.46875 -11.015625 Z M 11.578125 -11.015625" transform="translate(27.562 57.184)"/></g></g></g><g fill="#E9AE70"><g><g><path d="M 8.484375 -2.140625 L 3.828125 -2.140625 L 2.953125 0 L -0.21875 0 L 4.640625 -11.015625 L 7.703125 -11.015625 L 12.59375 0 L 9.34375 0 Z M 7.5625 -4.4375 L 6.15625 -7.96875 L 4.734375 -4.4375 Z M 7.5625 -4.4375" transform="translate(40.24 57.184)"/></g></g></g><g fill="#E9AE70"><g><g><path d="M 9.5625 -5.75 C 10.195312 -5.519531 10.691406 -5.171875 11.046875 -4.703125 C 11.398438 -4.242188 11.578125 -3.679688 11.578125 -3.015625 C 11.578125 -2.054688 11.1875 -1.3125 10.40625 -0.78125 C 9.632812 -0.257812 8.515625 0 7.046875 0 L 1.09375 0 L 1.09375 -11.015625 L 6.734375 -11.015625 C 8.140625 -11.015625 9.207031 -10.753906 9.9375 -10.234375 C 10.675781 -9.710938 11.046875 -9.015625 11.046875 -8.140625 C 11.046875 -7.609375 10.914062 -7.132812 10.65625 -6.71875 C 10.40625 -6.3125 10.039062 -5.988281 9.5625 -5.75 Z M 4.1875 -8.765625 L 4.1875 -6.640625 L 6.328125 -6.640625 C 7.378906 -6.640625 7.90625 -6.992188 7.90625 -7.703125 C 7.90625 -8.410156 7.378906 -8.765625 6.328125 -8.765625 Z M 6.796875 -2.25 C 7.890625 -2.25 8.4375 -2.617188 8.4375 -3.359375 C 8.4375 -4.109375 7.890625 -4.484375 6.796875 -4.484375 L 4.1875 -4.484375 L 4.1875 -2.25 Z M 6.796875 -2.25" transform="translate(52.603 57.184)"/></g></g></g><g fill="#E9AE70"><g><g><path d="M 1.09375 -11.015625 L 4.21875 -11.015625 L 4.21875 0 L 1.09375 0 Z M 1.09375 -11.015625" transform="translate(64.699 57.184)"/></g></g></g><g fill="#E9AE70"><g><g><path d="M 3.453125 -8.546875 L 0.0625 -8.546875 L 0.0625 -11.015625 L 9.921875 -11.015625 L 9.921875 -8.546875 L 6.5625 -8.546875 L 6.5625 0 L 3.453125 0 Z M 3.453125 -8.546875" transform="translate(70.03 57.184)"/></g></g></g><g fill="#E9AE70"><g><g><path d="M 4.96875 0.21875 C 4.082031 0.21875 3.21875 0.109375 2.375 -0.109375 C 1.53125 -0.328125 0.847656 -0.617188 0.328125 -0.984375 L 1.359375 -3.28125 C 1.847656 -2.957031 2.414062 -2.695312 3.0625 -2.5 C 3.71875 -2.300781 4.359375 -2.203125 4.984375 -2.203125 C 6.179688 -2.203125 6.78125 -2.5 6.78125 -3.09375 C 6.78125 -3.414062 6.609375 -3.648438 6.265625 -3.796875 C 5.929688 -3.953125 5.382812 -4.113281 4.625 -4.28125 C 3.800781 -4.457031 3.109375 -4.644531 2.546875 -4.84375 C 1.992188 -5.050781 1.515625 -5.378906 1.109375 -5.828125 C 0.710938 -6.285156 0.515625 -6.894531 0.515625 -7.65625 C 0.515625 -8.332031 0.695312 -8.941406 1.0625 -9.484375 C 1.4375 -10.023438 1.988281 -10.453125 2.71875 -10.765625 C 3.445312 -11.078125 4.335938 -11.234375 5.390625 -11.234375 C 6.117188 -11.234375 6.832031 -11.148438 7.53125 -10.984375 C 8.238281 -10.828125 8.859375 -10.59375 9.390625 -10.28125 L 8.4375 -7.96875 C 7.382812 -8.53125 6.363281 -8.8125 5.375 -8.8125 C 4.757812 -8.8125 4.3125 -8.71875 4.03125 -8.53125 C 3.75 -8.351562 3.609375 -8.113281 3.609375 -7.8125 C 3.609375 -7.519531 3.773438 -7.300781 4.109375 -7.15625 C 4.441406 -7.007812 4.984375 -6.859375 5.734375 -6.703125 C 6.566406 -6.523438 7.257812 -6.332031 7.8125 -6.125 C 8.363281 -5.925781 8.835938 -5.601562 9.234375 -5.15625 C 9.640625 -4.707031 9.84375 -4.097656 9.84375 -3.328125 C 9.84375 -2.671875 9.660156 -2.070312 9.296875 -1.53125 C 8.929688 -1 8.378906 -0.570312 7.640625 -0.25 C 6.910156 0.0625 6.019531 0.21875 4.96875 0.21875 Z M 4.96875 0.21875" transform="translate(80.019 57.184)"/></g></g></g><g fill="#E9AE70"><g><g><path d="M 0.171875 1.921875 C -0.117188 1.921875 -0.398438 1.890625 -0.671875 1.828125 L -0.671875 0.546875 C -0.585938 0.566406 -0.492188 0.585938 -0.390625 0.609375 C -0.285156 0.628906 -0.175781 0.640625 -0.0625 0.640625 C 0.207031 0.640625 0.398438 0.554688 0.515625 0.390625 C 0.628906 0.222656 0.6875 -0.0546875 0.6875 -0.453125 L 0.6875 -6.09375 L 2.34375 -6.09375 L 2.34375 -0.59375 C 2.34375 0.226562 2.160156 0.851562 1.796875 1.28125 C 1.441406 1.707031 0.898438 1.921875 0.171875 1.921875 Z M 0.171875 1.921875" transform="translate(30.604 128.817)"/></g></g><g><g><path d="M 4.40625 0 L 4.109375 -1.140625 L 2.125 -1.140625 L 1.8125 0 L 0 0 L 1.984375 -6.125 L 4.1875 -6.125 L 6.203125 0 Z M 3.765625 -2.5 L 3.5 -3.5 C 3.4375 -3.71875 3.359375 -4.003906 3.265625 -4.359375 C 3.179688 -4.710938 3.125 -4.96875 3.09375 -5.125 C 3.070312 -4.976562 3.023438 -4.742188 2.953125 -4.421875 C 2.878906 -4.097656 2.71875 -3.457031 2.46875 -2.5 Z M 3.765625 -2.5" transform="translate(33.613 128.817)"/></g></g><g><g><path d="M 3.3125 0 L 2.0625 -4.390625 L 2.03125 -4.390625 C 2.09375 -3.640625 2.125 -3.0625 2.125 -2.65625 L 2.125 0 L 0.65625 0 L 0.65625 -6.09375 L 2.859375 -6.09375 L 4.125 -1.765625 L 4.15625 -1.765625 L 5.40625 -6.09375 L 7.609375 -6.09375 L 7.609375 0 L 6.09375 0 L 6.09375 -2.671875 C 6.09375 -2.816406 6.09375 -2.972656 6.09375 -3.140625 C 6.101562 -3.304688 6.125 -3.722656 6.15625 -4.390625 L 6.125 -4.390625 L 4.890625 0 Z M 3.3125 0" transform="translate(39.82 128.817)"/></g></g><g><g><path d="M 4.28125 0 L 0.65625 0 L 0.65625 -6.09375 L 4.28125 -6.09375 L 4.28125 -4.78125 L 2.3125 -4.78125 L 2.3125 -3.8125 L 4.140625 -3.8125 L 4.140625 -2.5 L 2.3125 -2.5 L 2.3125 -1.34375 L 4.28125 -1.34375 Z M 4.28125 0" transform="translate(48.083 128.817)"/></g></g><g><g><path d="M 4.65625 -1.859375 C 4.65625 -1.472656 4.554688 -1.132812 4.359375 -0.84375 C 4.171875 -0.550781 3.894531 -0.320312 3.53125 -0.15625 C 3.164062 0 2.738281 0.078125 2.25 0.078125 C 1.851562 0.078125 1.515625 0.0507812 1.234375 0 C 0.960938 -0.0625 0.675781 -0.160156 0.375 -0.296875 L 0.375 -1.765625 C 0.6875 -1.609375 1.007812 -1.484375 1.34375 -1.390625 C 1.6875 -1.296875 2.003906 -1.25 2.296875 -1.25 C 2.535156 -1.25 2.710938 -1.289062 2.828125 -1.375 C 2.941406 -1.46875 3 -1.582031 3 -1.71875 C 3 -1.800781 2.972656 -1.875 2.921875 -1.9375 C 2.878906 -2 2.804688 -2.0625 2.703125 -2.125 C 2.609375 -2.1875 2.34375 -2.316406 1.90625 -2.515625 C 1.5 -2.691406 1.195312 -2.863281 1 -3.03125 C 0.800781 -3.207031 0.65625 -3.40625 0.5625 -3.625 C 0.46875 -3.84375 0.421875 -4.101562 0.421875 -4.40625 C 0.421875 -4.96875 0.625 -5.40625 1.03125 -5.71875 C 1.4375 -6.03125 2 -6.1875 2.71875 -6.1875 C 3.351562 -6.1875 4 -6.039062 4.65625 -5.75 L 4.140625 -4.484375 C 3.566406 -4.742188 3.078125 -4.875 2.671875 -4.875 C 2.453125 -4.875 2.289062 -4.832031 2.1875 -4.75 C 2.09375 -4.675781 2.046875 -4.585938 2.046875 -4.484375 C 2.046875 -4.359375 2.109375 -4.25 2.234375 -4.15625 C 2.359375 -4.0625 2.695312 -3.890625 3.25 -3.640625 C 3.769531 -3.398438 4.132812 -3.144531 4.34375 -2.875 C 4.550781 -2.601562 4.65625 -2.265625 4.65625 -1.859375 Z M 4.65625 -1.859375" transform="translate(52.775 128.817)"/></g></g><g><g><path d="M 3.375 -4.84375 C 2.976562 -4.84375 2.671875 -4.679688 2.453125 -4.359375 C 2.234375 -4.035156 2.125 -3.59375 2.125 -3.03125 C 2.125 -1.851562 2.570312 -1.265625 3.46875 -1.265625 C 3.738281 -1.265625 4 -1.300781 4.25 -1.375 C 4.5 -1.445312 4.753906 -1.539062 5.015625 -1.65625 L 5.015625 -0.25 C 4.503906 -0.03125 3.925781 0.078125 3.28125 0.078125 C 2.363281 0.078125 1.660156 -0.1875 1.171875 -0.71875 C 0.679688 -1.25 0.4375 -2.019531 0.4375 -3.03125 C 0.4375 -3.664062 0.550781 -4.222656 0.78125 -4.703125 C 1.019531 -5.179688 1.363281 -5.546875 1.8125 -5.796875 C 2.257812 -6.054688 2.785156 -6.1875 3.390625 -6.1875 C 4.046875 -6.1875 4.675781 -6.046875 5.28125 -5.765625 L 4.78125 -4.46875 C 4.550781 -4.570312 4.320312 -4.660156 4.09375 -4.734375 C 3.875 -4.804688 3.632812 -4.84375 3.375 -4.84375 Z M 3.375 -4.84375" transform="translate(59.928 128.817)"/></g></g><g><g><path d="M 0.65625 0 L 0.65625 -6.09375 L 2.3125 -6.09375 L 2.3125 -1.328125 L 4.65625 -1.328125 L 4.65625 0 Z M 0.65625 0" transform="translate(65.475 128.817)"/></g></g><g><g><path d="M 4.28125 0 L 0.65625 0 L 0.65625 -6.09375 L 4.28125 -6.09375 L 4.28125 -4.78125 L 2.3125 -4.78125 L 2.3125 -3.8125 L 4.140625 -3.8125 L 4.140625 -2.5 L 2.3125 -2.5 L 2.3125 -1.34375 L 4.28125 -1.34375 Z M 4.28125 0" transform="translate(70.45 128.817)"/></g></g><g><g><path d="M 4.40625 0 L 4.109375 -1.140625 L 2.125 -1.140625 L 1.8125 0 L 0 0 L 1.984375 -6.125 L 4.1875 -6.125 L 6.203125 0 Z M 3.765625 -2.5 L 3.5 -3.5 C 3.4375 -3.71875 3.359375 -4.003906 3.265625 -4.359375 C 3.179688 -4.710938 3.125 -4.96875 3.09375 -5.125 C 3.070312 -4.976562 3.023438 -4.742188 2.953125 -4.421875 C 2.878906 -4.097656 2.71875 -3.457031 2.46875 -2.5 Z M 3.765625 -2.5" transform="translate(75.142 128.817)"/></g></g><g><g><path d="M 2.3125 -2.21875 L 2.3125 0 L 0.65625 0 L 0.65625 -6.09375 L 2.65625 -6.09375 C 4.3125 -6.09375 5.140625 -5.492188 5.140625 -4.296875 C 5.140625 -3.585938 4.796875 -3.039062 4.109375 -2.65625 L 5.890625 0 L 4.015625 0 L 2.71875 -2.21875 Z M 2.3125 -3.453125 L 2.609375 -3.453125 C 3.191406 -3.453125 3.484375 -3.707031 3.484375 -4.21875 C 3.484375 -4.644531 3.203125 -4.859375 2.640625 -4.859375 L 2.3125 -4.859375 Z M 2.3125 -3.453125" transform="translate(81.348 128.817)"/></g></g></g></svg>