<svg xmlns="http://www.w3.org/2000/svg" width="117.75" viewBox="0 0 117.75 145.5" height="145.5" version="1.0"><defs><clipPath id="a"><path d="M 5.558594 1.308594 L 111.921875 1.308594 L 111.921875 144.371094 L 5.558594 144.371094 Z M 5.558594 1.308594"/></clipPath><clipPath id="b"><path d="M 36 71 L 82 71 L 82 116.8125 L 36 116.8125 Z M 36 71"/></clipPath><clipPath id="c"><path d="M 35.355469 70 L 82 70 L 82 116.8125 L 35.355469 116.8125 Z M 35.355469 70"/></clipPath></defs><g clip-path="url(#a)"><path fill="#F3FAFB" d="M 17.351562 1.308594 L 100.132812 1.308594 C 100.90625 1.308594 101.671875 1.386719 102.429688 1.535156 C 103.1875 1.6875 103.925781 1.914062 104.636719 2.210938 C 105.351562 2.507812 106.03125 2.871094 106.675781 3.304688 C 107.316406 3.734375 107.914062 4.226562 108.460938 4.777344 C 109.007812 5.324219 109.496094 5.921875 109.925781 6.570312 C 110.355469 7.214844 110.714844 7.898438 111.011719 8.617188 C 111.308594 9.335938 111.53125 10.074219 111.683594 10.835938 C 111.832031 11.597656 111.910156 12.371094 111.910156 13.144531 L 111.910156 132.535156 C 111.910156 133.3125 111.832031 134.082031 111.683594 134.84375 C 111.53125 135.605469 111.308594 136.347656 111.011719 137.0625 C 110.714844 137.78125 110.355469 138.464844 109.925781 139.109375 C 109.496094 139.757812 109.007812 140.355469 108.460938 140.90625 C 107.914062 141.453125 107.316406 141.945312 106.675781 142.375 C 106.03125 142.808594 105.351562 143.171875 104.636719 143.46875 C 103.925781 143.769531 103.1875 143.992188 102.429688 144.144531 C 101.671875 144.296875 100.90625 144.371094 100.132812 144.371094 L 17.351562 144.371094 C 16.578125 144.371094 15.8125 144.296875 15.050781 144.144531 C 14.292969 143.992188 13.558594 143.769531 12.84375 143.46875 C 12.128906 143.171875 11.449219 142.808594 10.804688 142.375 C 10.164062 141.945312 9.570312 141.453125 9.023438 140.90625 C 8.476562 140.355469 7.988281 139.757812 7.558594 139.109375 C 7.128906 138.464844 6.765625 137.78125 6.46875 137.0625 C 6.171875 136.347656 5.949219 135.605469 5.796875 134.84375 C 5.648438 134.082031 5.570312 133.3125 5.570312 132.535156 L 5.570312 13.144531 C 5.570312 12.371094 5.648438 11.597656 5.796875 10.835938 C 5.949219 10.074219 6.171875 9.335938 6.46875 8.617188 C 6.765625 7.898438 7.128906 7.214844 7.558594 6.570312 C 7.988281 5.921875 8.476562 5.324219 9.023438 4.777344 C 9.570312 4.226562 10.164062 3.734375 10.804688 3.304688 C 11.449219 2.871094 12.128906 2.507812 12.84375 2.210938 C 13.558594 1.914062 14.292969 1.6875 15.050781 1.535156 C 15.8125 1.386719 16.578125 1.308594 17.351562 1.308594 Z M 17.351562 1.308594"/></g><g clip-path="url(#b)"><path fill="#F3FAFB" d="M 74.128906 106.5 C 73.625 106.921875 73.363281 107.566406 73.363281 108.222656 L 73.363281 115.261719 C 73.363281 115.6875 73.015625 116.035156 72.585938 116.035156 L 51.496094 116.035156 C 51.140625 116.035156 50.828125 115.796875 50.742188 115.445312 L 50.558594 114.695312 C 50.296875 113.667969 49.367188 112.9375 48.304688 112.9375 L 42.324219 112.9375 C 41.59375 112.9375 40.863281 112.703125 40.332031 112.207031 C 40.058594 111.960938 39.859375 111.679688 39.703125 111.386719 C 39.160156 110.304688 39.355469 108.976562 40.226562 108.101562 L 41.003906 107.328125 C 41.59375 106.738281 41.175781 105.730469 40.347656 105.730469 C 40.089844 105.605469 39.957031 105.359375 39.957031 105.105469 C 39.957031 104.875 40.066406 104.652344 40.277344 104.511719 C 40.777344 104.179688 40.648438 103.398438 40.058594 103.25 L 39.421875 103.097656 C 38.996094 102.988281 38.78125 102.53125 38.949219 102.128906 C 39.121094 101.746094 39.269531 101.214844 39.269531 100.539062 C 39.269531 98.988281 38.492188 98.214844 38.492188 98.214844 L 36.945312 98.214844 C 36.316406 98.214844 35.953125 97.507812 36.308594 96.996094 L 36.53125 96.664062 L 41.742188 89.054688 C 41.933594 88.777344 42.035156 88.453125 42.035156 88.117188 C 42.035156 87.808594 41.941406 87.492188 41.761719 87.210938 C 41.5 86.816406 41.414062 86.328125 41.539062 85.878906 C 44.097656 76.605469 53.105469 70.007812 63.445312 71.242188 C 72.707031 72.351562 80.078125 79.886719 81.011719 89.164062 C 81.691406 96.082031 78.878906 102.382812 74.128906 106.5"/></g><path fill="#76A18A" d="M 67.9375 91.242188 L 67.9375 102.476562 C 67.9375 103.011719 67.71875 103.5 67.371094 103.847656 C 67.023438 104.195312 66.535156 104.414062 66 104.414062 C 64.933594 104.414062 64.0625 103.542969 64.0625 102.476562 L 64.0625 102.089844 C 64.0625 99.78125 62.082031 97.199219 60.5 95.859375 L 67.9375 91.242188"/><path fill="#76A18A" d="M 64.109375 94.246094 C 64.40625 96.460938 66.117188 97.75 67.9375 98.105469 C 68.285156 98.183594 68.644531 98.214844 68.992188 98.214844 C 71.835938 98.214844 74.136719 96.128906 74.136719 93.566406 C 74.136719 93.472656 74.136719 93.386719 74.121094 93.300781 L 74.136719 91.242188 L 64.0625 91.242188 L 64.109375 94.246094"/><path fill="#76A18A" d="M 74.898438 90.921875 C 74.898438 90.929688 74.898438 90.929688 74.898438 90.929688 C 74.902344 91.03125 74.910156 91.140625 74.910156 91.242188 C 74.910156 92.953125 73.527344 94.339844 71.8125 94.339844 C 70.640625 94.339844 69.628906 93.695312 69.101562 92.738281 C 68.574219 93.695312 67.558594 94.339844 66.386719 94.339844 C 65.667969 94.339844 65.003906 94.09375 64.464844 93.664062 L 64.460938 93.660156 C 63.839844 94.976562 62.515625 95.890625 60.964844 95.890625 C 59.625 95.890625 58.445312 95.214844 57.746094 94.1875 C 57.191406 94.757812 56.410156 95.117188 55.539062 95.117188 C 54.054688 95.117188 52.804688 94.0625 52.511719 92.660156 C 52.238281 92.738281 51.960938 92.789062 51.667969 92.789062 C 49.953125 92.789062 48.566406 91.40625 48.566406 89.691406 C 48.566406 89.398438 48.621094 89.121094 48.695312 88.847656 C 47.296875 88.554688 46.242188 87.304688 46.242188 85.816406 C 46.242188 84.332031 47.296875 83.082031 48.695312 82.789062 C 48.621094 82.515625 48.566406 82.238281 48.566406 81.941406 C 48.566406 80.230469 49.953125 78.84375 51.667969 78.84375 C 51.691406 78.84375 51.722656 78.84375 51.742188 78.851562 C 52.097656 77.074219 53.667969 75.746094 55.539062 75.746094 C 56.136719 75.746094 56.695312 75.875 57.199219 76.117188 C 58.050781 74.953125 59.425781 74.195312 60.964844 74.195312 C 62.886719 74.195312 64.546875 75.367188 65.242188 77.03125 C 65.808594 76.703125 66.464844 76.519531 67.164062 76.519531 C 69.304688 76.519531 71.039062 78.253906 71.039062 80.394531 C 73.015625 80.394531 74.648438 81.878906 74.882812 83.796875 C 76.257812 84.390625 77.234375 85.761719 77.234375 87.367188 C 77.234375 88.960938 76.269531 90.335938 74.898438 90.921875"/><g clip-path="url(#c)"><path stroke-linecap="round" transform="matrix(.07748 0 0 -.07748 35.395 116.811)" fill="none" stroke-linejoin="round" d="M 133.29214 499.979842 C 187.284684 562.492218 270.668127 598.991379 362.016856 588.102126 C 481.496155 573.784776 576.676288 476.487288 588.674631 356.806336 C 597.547356 267.524548 561.199434 186.208047 499.896975 133.173354 C 493.444085 127.577488 490.015987 119.309722 490.015987 110.78989 L 490.015987 19.995706 C 490.015987 14.500666 485.529211 10.013891 479.983759 10.013891 L 207.802858 10.013891 C 203.26567 10.013891 199.232613 13.13951 198.123523 17.575872 L 195.703689 27.305621 C 192.326004 40.564294 180.327661 49.991563 166.615269 49.991563 L 89.43265 49.991563 C 80.005381 49.991563 70.628524 53.016356 63.671502 59.418833 C 47.942582 73.98825 47.992995 97.984936 62.360759 112.403113 L 72.4434 122.435341 C 80.005381 130.047735 74.661581 143.003929 63.923568 143.003929 C 60.64671 144.617151 58.882247 147.793183 58.882247 151.070042 C 58.882247 153.994008 60.293817 156.917974 63.01613 158.732849 C 69.469021 163.017972 67.805385 173.100613 60.192991 175.016315 L 51.975638 176.98243 C 46.480599 178.394 43.707872 184.292345 45.87564 189.484905 C 48.144234 194.425399 50.009523 201.281595 50.009523 210.00308 C 50.009523 230.017123 39.977295 239.998938 39.977295 239.998938 L 20.013665 239.998938 C 11.897139 239.998938 7.208711 249.123728 11.796313 255.727858 L 81.921083 358.217906 C 84.39133 361.797244 85.702073 365.98154 85.702073 370.317076 C 85.702073 374.299719 84.492156 378.383189 82.173149 382.01294 C 78.845877 387.104673 77.686373 393.406324 79.299596 399.203843 C 86.155792 424.00714 96.540912 447.348455 110.001238 468.572415" stroke="#2B2C2D" stroke-width="20" stroke-miterlimit="10"/></g><path stroke-linecap="round" transform="matrix(.07748 0 0 -.07748 35.395 116.811)" fill="none" stroke-linejoin="round" d="M 370.587101 291.218755 C 374.418505 262.634467 396.499489 245.998109 419.992043 241.410507 C 424.478819 240.402243 429.116834 239.998938 433.603609 239.998938 C 470.304423 239.998938 499.997802 266.91959 499.997802 299.990653 C 499.997802 301.20057 499.997802 302.30966 499.796149 303.418751" stroke="#2B2C2D" stroke-width="20" stroke-miterlimit="10"/><path stroke-linecap="round" transform="matrix(.07748 0 0 -.07748 35.395 116.811)" fill="none" stroke-linejoin="round" d="M 509.828377 334.120394 C 509.828377 334.019567 509.828377 334.019567 509.828377 334.019567 C 509.87879 332.708824 509.979616 331.297254 509.979616 329.986511 C 509.979616 307.905526 492.133341 290.008838 470.001944 290.008838 C 454.877982 290.008838 441.820962 298.327017 435.015179 310.678253 C 428.209396 298.327017 415.101962 290.008838 399.978 290.008838 C 390.701971 290.008838 382.131725 293.18487 375.174703 298.730323 L 375.12429 298.780736 C 367.10859 281.791486 350.018513 269.994795 330.00447 269.994795 C 312.712741 269.994795 297.487952 278.71628 288.463988 291.974953 C 281.305313 284.614625 271.222672 279.97661 259.980527 279.97661 C 240.823509 279.97661 224.691283 293.588176 220.910292 311.686517 C 217.381368 310.678253 213.80203 310.022881 210.02104 310.022881 C 187.889642 310.022881 169.992954 327.869156 169.992954 350.000554 C 169.992954 353.781544 170.698739 357.360882 171.65659 360.889806 C 153.608662 364.670797 139.997096 380.803023 139.997096 400.010454 C 139.997096 419.167472 153.608662 435.299698 171.65659 439.080689 C 170.698739 442.609613 169.992954 446.188951 169.992954 450.020355 C 169.992954 472.101339 187.889642 489.998027 210.02104 489.998027 C 210.323519 489.998027 210.726824 489.998027 210.97889 489.897201 C 215.566492 512.83521 235.832601 529.9757 259.980527 529.9757 C 267.693747 529.9757 274.902836 528.312064 281.40614 525.186445 C 292.396218 540.209581 310.141667 549.989743 330.00447 549.989743 C 354.807768 549.989743 376.23338 534.865781 385.206931 513.389755 C 392.516846 517.624464 400.986265 519.993885 410.010229 519.993885 C 437.636666 519.993885 460.020129 497.610421 460.020129 469.983984 C 485.529211 469.983984 506.601932 450.826966 509.626724 426.074082 C 527.372173 418.411274 539.975474 400.716239 539.975474 379.996411" stroke="#2B2C2D" stroke-width="20" stroke-miterlimit="10"/><path stroke-linecap="round" transform="matrix(.07748 0 0 -.07748 35.395 116.811)" fill="none" stroke-linejoin="round" d="M 419.992043 241.410507 L 419.992043 184.99813 C 419.992043 178.09152 417.168904 171.78987 412.682128 167.303094 C 408.195353 162.816319 401.893702 159.993179 394.987093 159.993179 C 381.224288 159.993179 369.982143 171.235324 369.982143 184.99813 L 369.982143 189.989037 C 369.982143 219.783242 344.422647 253.106371 324.005299 270.398101" stroke="#2B2C2D" stroke-width="20" stroke-miterlimit="10"/><path stroke-linecap="round" transform="matrix(.07748 0 0 -.07748 35.395 116.811)" fill="none" stroke-linejoin="round" d="M 39.977295 239.998938 L 57.621917 239.998938 C 65.486377 239.998938 73.199598 236.772492 78.795464 231.22704 L 80.005381 230.017123" stroke="#2B2C2D" stroke-width="20" stroke-miterlimit="10"/><path stroke-linecap="round" transform="matrix(.07748 0 0 -.07748 35.395 116.811)" fill="none" stroke-linejoin="round" d="M 169.992954 49.991563 L 285.287956 49.991563 C 312.712741 49.991563 337.717691 65.518831 350.018513 90.019649" stroke="#2B2C2D" stroke-width="20" stroke-miterlimit="10"/><path stroke-linecap="round" transform="matrix(.07748 0 0 -.07748 35.395 116.811)" fill="none" stroke-linejoin="round" d="M 499.997802 133.27418 C 487.646566 122.58658 474.236653 113.008071 460.020129 104.790719" stroke="#2B2C2D" stroke-width="20" stroke-miterlimit="10"/><path stroke-linecap="round" transform="matrix(.07748 0 0 -.07748 35.395 116.811)" fill="none" stroke-linejoin="round" d="M 330.00447 409.992269 C 307.873073 409.992269 289.976385 427.888957 289.976385 450.020355 C 289.976385 472.101339 307.873073 489.998027 330.00447 489.998027 C 352.085455 489.998027 369.982143 472.101339 369.982143 450.020355" stroke="#2B2C2D" stroke-width="20" stroke-miterlimit="10"/><path stroke-linecap="round" transform="matrix(.07748 0 0 -.07748 35.395 116.811)" fill="none" stroke-linejoin="round" d="M 330.00447 409.992269 C 352.085455 409.992269 369.982143 392.095581 369.982143 370.014596 C 369.982143 347.883199 352.085455 329.986511 330.00447 329.986511 C 307.873073 329.986511 289.976385 347.883199 289.976385 370.014596" stroke="#2B2C2D" stroke-width="20" stroke-miterlimit="10"/><path stroke-linecap="round" transform="matrix(.07748 0 0 -.07748 35.395 116.811)" fill="none" stroke-linejoin="round" d="M 330.00447 499.979842 L 330.00447 320.004696" stroke="#2B2C2D" stroke-width="20" stroke-miterlimit="10"/><g><g><g><path d="M 2.0625 -4.109375 L 0.4375 -4.109375 L 0.6875 -5.3125 L 5.4375 -5.3125 L 5.1875 -4.109375 L 3.5625 -4.109375 L 2.75 0 L 1.25 0 Z M 2.0625 -4.109375" transform="translate(50.867 19.032)"/></g></g></g><g><g><g><path d="M 6.21875 -5.3125 L 5.15625 0 L 3.65625 0 L 4.0625 -2.0625 L 2.03125 -2.0625 L 1.625 0 L 0.125 0 L 1.1875 -5.3125 L 2.6875 -5.3125 L 2.28125 -3.3125 L 4.328125 -3.3125 L 4.71875 -5.3125 Z M 6.21875 -5.3125" transform="translate(55.678 19.032)"/></g></g></g><g><g><g><path d="M 2.421875 -4.140625 L 2.25 -3.25 L 4.609375 -3.25 L 4.390625 -2.125 L 2.015625 -2.125 L 1.828125 -1.15625 L 4.609375 -1.15625 L 4.375 0 L 0.125 0 L 1.1875 -5.3125 L 5.328125 -5.3125 L 5.09375 -4.140625 Z M 2.421875 -4.140625" transform="translate(61.783 19.032)"/></g></g></g><g><g><g><path d="M 4.90625 -8.796875 C 5.695312 -8.796875 6.382812 -8.660156 6.96875 -8.390625 C 7.5625 -8.128906 8.015625 -7.753906 8.328125 -7.265625 C 8.648438 -6.773438 8.8125 -6.203125 8.8125 -5.546875 C 8.8125 -4.878906 8.648438 -4.300781 8.328125 -3.8125 C 8.015625 -3.332031 7.5625 -2.957031 6.96875 -2.6875 C 6.382812 -2.425781 5.695312 -2.296875 4.90625 -2.296875 L 3.359375 -2.296875 L 3.359375 0 L 0.875 0 L 0.875 -8.796875 Z M 4.75 -4.265625 C 5.257812 -4.265625 5.644531 -4.375 5.90625 -4.59375 C 6.164062 -4.8125 6.296875 -5.128906 6.296875 -5.546875 C 6.296875 -5.953125 6.164062 -6.265625 5.90625 -6.484375 C 5.644531 -6.710938 5.257812 -6.828125 4.75 -6.828125 L 3.359375 -6.828125 L 3.359375 -4.265625 Z M 4.75 -4.265625" transform="translate(12.497 32.92)"/></g></g></g><g><g><g><path d="M 3.96875 0.171875 C 3.257812 0.171875 2.566406 0.0820312 1.890625 -0.09375 C 1.222656 -0.269531 0.679688 -0.503906 0.265625 -0.796875 L 1.078125 -2.625 C 1.472656 -2.363281 1.929688 -2.15625 2.453125 -2 C 2.972656 -1.84375 3.484375 -1.765625 3.984375 -1.765625 C 4.941406 -1.765625 5.421875 -2 5.421875 -2.46875 C 5.421875 -2.726562 5.28125 -2.914062 5 -3.03125 C 4.726562 -3.15625 4.289062 -3.285156 3.6875 -3.421875 C 3.03125 -3.554688 2.476562 -3.707031 2.03125 -3.875 C 1.59375 -4.039062 1.210938 -4.300781 0.890625 -4.65625 C 0.578125 -5.019531 0.421875 -5.507812 0.421875 -6.125 C 0.421875 -6.65625 0.566406 -7.132812 0.859375 -7.5625 C 1.148438 -8 1.585938 -8.34375 2.171875 -8.59375 C 2.753906 -8.84375 3.46875 -8.96875 4.3125 -8.96875 C 4.882812 -8.96875 5.453125 -8.898438 6.015625 -8.765625 C 6.578125 -8.640625 7.070312 -8.453125 7.5 -8.203125 L 6.734375 -6.359375 C 5.898438 -6.804688 5.085938 -7.03125 4.296875 -7.03125 C 3.804688 -7.03125 3.445312 -6.957031 3.21875 -6.8125 C 2.988281 -6.664062 2.875 -6.476562 2.875 -6.25 C 2.875 -6.007812 3.007812 -5.832031 3.28125 -5.71875 C 3.550781 -5.601562 3.984375 -5.484375 4.578125 -5.359375 C 5.242188 -5.210938 5.796875 -5.054688 6.234375 -4.890625 C 6.671875 -4.722656 7.050781 -4.460938 7.375 -4.109375 C 7.695312 -3.753906 7.859375 -3.269531 7.859375 -2.65625 C 7.859375 -2.132812 7.710938 -1.660156 7.421875 -1.234375 C 7.128906 -0.804688 6.6875 -0.460938 6.09375 -0.203125 C 5.507812 0.046875 4.800781 0.171875 3.96875 0.171875 Z M 3.96875 0.171875" transform="translate(21.751 32.92)"/></g></g></g><g><g><g><path d="M 5.59375 -3.15625 L 5.59375 0 L 3.109375 0 L 3.109375 -3.1875 L -0.25 -8.796875 L 2.375 -8.796875 L 4.453125 -5.296875 L 6.546875 -8.796875 L 8.953125 -8.796875 Z M 5.59375 -3.15625" transform="translate(29.875 32.92)"/></g></g></g><g><g><g><path d="M 5.265625 0.171875 C 4.335938 0.171875 3.507812 -0.0195312 2.78125 -0.40625 C 2.050781 -0.800781 1.472656 -1.34375 1.046875 -2.03125 C 0.628906 -2.726562 0.421875 -3.515625 0.421875 -4.390625 C 0.421875 -5.273438 0.628906 -6.0625 1.046875 -6.75 C 1.472656 -7.445312 2.050781 -7.988281 2.78125 -8.375 C 3.507812 -8.769531 4.335938 -8.96875 5.265625 -8.96875 C 6.066406 -8.96875 6.789062 -8.820312 7.4375 -8.53125 C 8.082031 -8.25 8.617188 -7.84375 9.046875 -7.3125 L 7.46875 -5.875 C 6.894531 -6.5625 6.203125 -6.90625 5.390625 -6.90625 C 4.910156 -6.90625 4.484375 -6.800781 4.109375 -6.59375 C 3.742188 -6.382812 3.457031 -6.085938 3.25 -5.703125 C 3.039062 -5.328125 2.9375 -4.890625 2.9375 -4.390625 C 2.9375 -3.898438 3.039062 -3.460938 3.25 -3.078125 C 3.457031 -2.703125 3.742188 -2.410156 4.109375 -2.203125 C 4.484375 -1.992188 4.910156 -1.890625 5.390625 -1.890625 C 6.203125 -1.890625 6.894531 -2.234375 7.46875 -2.921875 L 9.046875 -1.484375 C 8.617188 -0.941406 8.082031 -0.53125 7.4375 -0.25 C 6.789062 0.03125 6.066406 0.171875 5.265625 0.171875 Z M 5.265625 0.171875" transform="translate(38.577 32.92)"/></g></g></g><g><g><g><path d="M 9.25 -8.796875 L 9.25 0 L 6.765625 0 L 6.765625 -3.421875 L 3.359375 -3.421875 L 3.359375 0 L 0.875 0 L 0.875 -8.796875 L 3.359375 -8.796875 L 3.359375 -5.484375 L 6.765625 -5.484375 L 6.765625 -8.796875 Z M 9.25 -8.796875" transform="translate(47.844 32.92)"/></g></g></g><g><g><g><path d="M 5.3125 0.171875 C 4.382812 0.171875 3.550781 -0.0195312 2.8125 -0.40625 C 2.070312 -0.800781 1.488281 -1.347656 1.0625 -2.046875 C 0.632812 -2.742188 0.421875 -3.523438 0.421875 -4.390625 C 0.421875 -5.265625 0.632812 -6.046875 1.0625 -6.734375 C 1.488281 -7.429688 2.070312 -7.976562 2.8125 -8.375 C 3.550781 -8.769531 4.382812 -8.96875 5.3125 -8.96875 C 6.238281 -8.96875 7.070312 -8.769531 7.8125 -8.375 C 8.5625 -7.976562 9.144531 -7.429688 9.5625 -6.734375 C 9.988281 -6.046875 10.203125 -5.265625 10.203125 -4.390625 C 10.203125 -3.523438 9.988281 -2.742188 9.5625 -2.046875 C 9.144531 -1.347656 8.5625 -0.800781 7.8125 -0.40625 C 7.070312 -0.0195312 6.238281 0.171875 5.3125 0.171875 Z M 5.3125 -1.890625 C 5.757812 -1.890625 6.160156 -1.992188 6.515625 -2.203125 C 6.878906 -2.410156 7.164062 -2.703125 7.375 -3.078125 C 7.582031 -3.460938 7.6875 -3.898438 7.6875 -4.390625 C 7.6875 -4.890625 7.582031 -5.328125 7.375 -5.703125 C 7.164062 -6.085938 6.878906 -6.382812 6.515625 -6.59375 C 6.160156 -6.800781 5.757812 -6.90625 5.3125 -6.90625 C 4.863281 -6.90625 4.457031 -6.800781 4.09375 -6.59375 C 3.738281 -6.382812 3.457031 -6.085938 3.25 -5.703125 C 3.039062 -5.328125 2.9375 -4.890625 2.9375 -4.390625 C 2.9375 -3.898438 3.039062 -3.460938 3.25 -3.078125 C 3.457031 -2.703125 3.738281 -2.410156 4.09375 -2.203125 C 4.457031 -1.992188 4.863281 -1.890625 5.3125 -1.890625 Z M 5.3125 -1.890625" transform="translate(57.964 32.92)"/></g></g></g><g><g><g><path d="M 0.875 -8.796875 L 3.359375 -8.796875 L 3.359375 -1.96875 L 7.5625 -1.96875 L 7.5625 0 L 0.875 0 Z M 0.875 -8.796875" transform="translate(68.587 32.92)"/></g></g></g><g><g><g><path d="M 5.3125 0.171875 C 4.382812 0.171875 3.550781 -0.0195312 2.8125 -0.40625 C 2.070312 -0.800781 1.488281 -1.347656 1.0625 -2.046875 C 0.632812 -2.742188 0.421875 -3.523438 0.421875 -4.390625 C 0.421875 -5.265625 0.632812 -6.046875 1.0625 -6.734375 C 1.488281 -7.429688 2.070312 -7.976562 2.8125 -8.375 C 3.550781 -8.769531 4.382812 -8.96875 5.3125 -8.96875 C 6.238281 -8.96875 7.070312 -8.769531 7.8125 -8.375 C 8.5625 -7.976562 9.144531 -7.429688 9.5625 -6.734375 C 9.988281 -6.046875 10.203125 -5.265625 10.203125 -4.390625 C 10.203125 -3.523438 9.988281 -2.742188 9.5625 -2.046875 C 9.144531 -1.347656 8.5625 -0.800781 7.8125 -0.40625 C 7.070312 -0.0195312 6.238281 0.171875 5.3125 0.171875 Z M 5.3125 -1.890625 C 5.757812 -1.890625 6.160156 -1.992188 6.515625 -2.203125 C 6.878906 -2.410156 7.164062 -2.703125 7.375 -3.078125 C 7.582031 -3.460938 7.6875 -3.898438 7.6875 -4.390625 C 7.6875 -4.890625 7.582031 -5.328125 7.375 -5.703125 C 7.164062 -6.085938 6.878906 -6.382812 6.515625 -6.59375 C 6.160156 -6.800781 5.757812 -6.90625 5.3125 -6.90625 C 4.863281 -6.90625 4.457031 -6.800781 4.09375 -6.59375 C 3.738281 -6.382812 3.457031 -6.085938 3.25 -5.703125 C 3.039062 -5.328125 2.9375 -4.890625 2.9375 -4.390625 C 2.9375 -3.898438 3.039062 -3.460938 3.25 -3.078125 C 3.457031 -2.703125 3.738281 -2.410156 4.09375 -2.203125 C 4.457031 -1.992188 4.863281 -1.890625 5.3125 -1.890625 Z M 5.3125 -1.890625" transform="translate(76.247 32.92)"/></g></g></g><g><g><g><path d="M 6.765625 -4.578125 L 8.96875 -4.578125 L 8.96875 -0.9375 C 8.46875 -0.582031 7.890625 -0.304688 7.234375 -0.109375 C 6.578125 0.078125 5.925781 0.171875 5.28125 0.171875 C 4.351562 0.171875 3.519531 -0.0195312 2.78125 -0.40625 C 2.050781 -0.800781 1.472656 -1.34375 1.046875 -2.03125 C 0.628906 -2.726562 0.421875 -3.515625 0.421875 -4.390625 C 0.421875 -5.273438 0.628906 -6.0625 1.046875 -6.75 C 1.472656 -7.445312 2.054688 -7.988281 2.796875 -8.375 C 3.546875 -8.769531 4.390625 -8.96875 5.328125 -8.96875 C 6.148438 -8.96875 6.882812 -8.828125 7.53125 -8.546875 C 8.1875 -8.273438 8.734375 -7.878906 9.171875 -7.359375 L 7.59375 -5.921875 C 7 -6.578125 6.285156 -6.90625 5.453125 -6.90625 C 4.703125 -6.90625 4.09375 -6.675781 3.625 -6.21875 C 3.164062 -5.769531 2.9375 -5.160156 2.9375 -4.390625 C 2.9375 -3.910156 3.039062 -3.476562 3.25 -3.09375 C 3.457031 -2.71875 3.75 -2.421875 4.125 -2.203125 C 4.507812 -1.992188 4.941406 -1.890625 5.421875 -1.890625 C 5.898438 -1.890625 6.347656 -1.984375 6.765625 -2.171875 Z M 6.765625 -4.578125" transform="translate(86.87 32.92)"/></g></g></g><g><g><g><path d="M 5.59375 -3.15625 L 5.59375 0 L 3.109375 0 L 3.109375 -3.1875 L -0.25 -8.796875 L 2.375 -8.796875 L 4.453125 -5.296875 L 6.546875 -8.796875 L 8.953125 -8.796875 Z M 5.59375 -3.15625" transform="translate(96.538 32.92)"/></g></g></g><g><g><g><path d="M 2.984375 0.109375 C 2.453125 0.109375 1.988281 0.0078125 1.59375 -0.1875 C 1.195312 -0.382812 0.890625 -0.660156 0.671875 -1.015625 C 0.453125 -1.367188 0.34375 -1.773438 0.34375 -2.234375 C 0.34375 -2.835938 0.484375 -3.382812 0.765625 -3.875 C 1.046875 -4.363281 1.4375 -4.742188 1.9375 -5.015625 C 2.445312 -5.285156 3.023438 -5.421875 3.671875 -5.421875 C 4.203125 -5.421875 4.664062 -5.320312 5.0625 -5.125 C 5.46875 -4.925781 5.773438 -4.648438 5.984375 -4.296875 C 6.203125 -3.941406 6.3125 -3.535156 6.3125 -3.078125 C 6.3125 -2.472656 6.171875 -1.925781 5.890625 -1.4375 C 5.609375 -0.957031 5.210938 -0.578125 4.703125 -0.296875 C 4.203125 -0.0234375 3.628906 0.109375 2.984375 0.109375 Z M 3.125 -1.140625 C 3.457031 -1.140625 3.75 -1.222656 4 -1.390625 C 4.25 -1.554688 4.441406 -1.78125 4.578125 -2.0625 C 4.722656 -2.34375 4.796875 -2.648438 4.796875 -2.984375 C 4.796875 -3.347656 4.679688 -3.632812 4.453125 -3.84375 C 4.234375 -4.0625 3.925781 -4.171875 3.53125 -4.171875 C 3.195312 -4.171875 2.90625 -4.085938 2.65625 -3.921875 C 2.40625 -3.753906 2.210938 -3.53125 2.078125 -3.25 C 1.941406 -2.96875 1.875 -2.660156 1.875 -2.328125 C 1.875 -1.960938 1.984375 -1.671875 2.203125 -1.453125 C 2.421875 -1.242188 2.726562 -1.140625 3.125 -1.140625 Z M 3.125 -1.140625" transform="translate(52.13 44.283)"/></g></g></g><g><g><g><path d="M 2.453125 -4.15625 L 2.21875 -2.984375 L 4.5625 -2.984375 L 4.328125 -1.828125 L 1.984375 -1.828125 L 1.625 0 L 0.125 0 L 1.1875 -5.3125 L 5.34375 -5.3125 L 5.109375 -4.15625 Z M 2.453125 -4.15625" transform="translate(58.547 44.283)"/></g></g></g><g fill="#76A18A"><g><g><path d="M 8.8125 0 L 8.796875 -4.65625 L 6.53125 -0.859375 L 5.421875 -0.859375 L 3.171875 -4.53125 L 3.171875 0 L 0.875 0 L 0.875 -8.796875 L 2.921875 -8.796875 L 6.015625 -3.71875 L 9.03125 -8.796875 L 11.078125 -8.796875 L 11.109375 0 Z M 8.8125 0" transform="translate(33.94 58.171)"/></g></g></g><g fill="#76A18A"><g><g><path d="M 5.3125 0.171875 C 4.382812 0.171875 3.550781 -0.0195312 2.8125 -0.40625 C 2.070312 -0.800781 1.488281 -1.347656 1.0625 -2.046875 C 0.632812 -2.742188 0.421875 -3.523438 0.421875 -4.390625 C 0.421875 -5.265625 0.632812 -6.046875 1.0625 -6.734375 C 1.488281 -7.429688 2.070312 -7.976562 2.8125 -8.375 C 3.550781 -8.769531 4.382812 -8.96875 5.3125 -8.96875 C 6.238281 -8.96875 7.070312 -8.769531 7.8125 -8.375 C 8.5625 -7.976562 9.144531 -7.429688 9.5625 -6.734375 C 9.988281 -6.046875 10.203125 -5.265625 10.203125 -4.390625 C 10.203125 -3.523438 9.988281 -2.742188 9.5625 -2.046875 C 9.144531 -1.347656 8.5625 -0.800781 7.8125 -0.40625 C 7.070312 -0.0195312 6.238281 0.171875 5.3125 0.171875 Z M 5.3125 -1.890625 C 5.757812 -1.890625 6.160156 -1.992188 6.515625 -2.203125 C 6.878906 -2.410156 7.164062 -2.703125 7.375 -3.078125 C 7.582031 -3.460938 7.6875 -3.898438 7.6875 -4.390625 C 7.6875 -4.890625 7.582031 -5.328125 7.375 -5.703125 C 7.164062 -6.085938 6.878906 -6.382812 6.515625 -6.59375 C 6.160156 -6.800781 5.757812 -6.90625 5.3125 -6.90625 C 4.863281 -6.90625 4.457031 -6.800781 4.09375 -6.59375 C 3.738281 -6.382812 3.457031 -6.085938 3.25 -5.703125 C 3.039062 -5.328125 2.9375 -4.890625 2.9375 -4.390625 C 2.9375 -3.898438 3.039062 -3.460938 3.25 -3.078125 C 3.457031 -2.703125 3.738281 -2.410156 4.09375 -2.203125 C 4.457031 -1.992188 4.863281 -1.890625 5.3125 -1.890625 Z M 5.3125 -1.890625" transform="translate(45.92 58.171)"/></g></g></g><g fill="#76A18A"><g><g><path d="M 9.25 -8.796875 L 9.25 0 L 7.203125 0 L 3.3125 -4.6875 L 3.3125 0 L 0.875 0 L 0.875 -8.796875 L 2.921875 -8.796875 L 6.8125 -4.109375 L 6.8125 -8.796875 Z M 9.25 -8.796875" transform="translate(56.543 58.171)"/></g></g></g><g fill="#76A18A"><g><g><path d="M 7.9375 -1.921875 L 7.9375 0 L 0.875 0 L 0.875 -8.796875 L 7.78125 -8.796875 L 7.78125 -6.875 L 3.34375 -6.875 L 3.34375 -5.390625 L 7.25 -5.390625 L 7.25 -3.53125 L 3.34375 -3.53125 L 3.34375 -1.921875 Z M 7.9375 -1.921875" transform="translate(66.663 58.171)"/></g></g></g><g fill="#76A18A"><g><g><path d="M 5.59375 -3.15625 L 5.59375 0 L 3.109375 0 L 3.109375 -3.1875 L -0.25 -8.796875 L 2.375 -8.796875 L 4.453125 -5.296875 L 6.546875 -8.796875 L 8.953125 -8.796875 Z M 5.59375 -3.15625" transform="translate(75.101 58.171)"/></g></g></g><g fill="#76A18A"><g><g><path d="M 4.625 0 L 4.609375 -2.4375 L 3.421875 -0.453125 L 2.84375 -0.453125 L 1.671875 -2.375 L 1.671875 0 L 0.453125 0 L 0.453125 -4.609375 L 1.53125 -4.609375 L 3.15625 -1.953125 L 4.734375 -4.609375 L 5.796875 -4.609375 L 5.8125 0 Z M 4.625 0" transform="translate(27.434 132.015)"/></g></g></g><g fill="#76A18A"><g><g><path d="M 2.78125 0.09375 C 2.289062 0.09375 1.851562 -0.0078125 1.46875 -0.21875 C 1.082031 -0.425781 0.773438 -0.710938 0.546875 -1.078125 C 0.328125 -1.441406 0.21875 -1.847656 0.21875 -2.296875 C 0.21875 -2.753906 0.328125 -3.164062 0.546875 -3.53125 C 0.773438 -3.894531 1.082031 -4.179688 1.46875 -4.390625 C 1.851562 -4.597656 2.289062 -4.703125 2.78125 -4.703125 C 3.269531 -4.703125 3.707031 -4.597656 4.09375 -4.390625 C 4.476562 -4.179688 4.78125 -3.894531 5 -3.53125 C 5.226562 -3.164062 5.34375 -2.753906 5.34375 -2.296875 C 5.34375 -1.847656 5.226562 -1.441406 5 -1.078125 C 4.78125 -0.710938 4.476562 -0.425781 4.09375 -0.21875 C 3.707031 -0.0078125 3.269531 0.09375 2.78125 0.09375 Z M 2.78125 -0.984375 C 3.007812 -0.984375 3.21875 -1.035156 3.40625 -1.140625 C 3.601562 -1.253906 3.753906 -1.410156 3.859375 -1.609375 C 3.972656 -1.816406 4.03125 -2.046875 4.03125 -2.296875 C 4.03125 -2.554688 3.972656 -2.785156 3.859375 -2.984375 C 3.753906 -3.191406 3.601562 -3.347656 3.40625 -3.453125 C 3.21875 -3.566406 3.007812 -3.625 2.78125 -3.625 C 2.550781 -3.625 2.34375 -3.566406 2.15625 -3.453125 C 1.96875 -3.347656 1.816406 -3.191406 1.703125 -2.984375 C 1.597656 -2.785156 1.546875 -2.554688 1.546875 -2.296875 C 1.546875 -2.046875 1.597656 -1.816406 1.703125 -1.609375 C 1.816406 -1.410156 1.96875 -1.253906 2.15625 -1.140625 C 2.34375 -1.035156 2.550781 -0.984375 2.78125 -0.984375 Z M 2.78125 -0.984375" transform="translate(33.709 132.015)"/></g></g></g><g fill="#76A18A"><g><g><path d="M 2.46875 -1.21875 L 1.765625 -1.21875 L 1.765625 0 L 0.453125 0 L 0.453125 -4.609375 L 2.5625 -4.609375 C 2.976562 -4.609375 3.335938 -4.535156 3.640625 -4.390625 C 3.953125 -4.253906 4.191406 -4.054688 4.359375 -3.796875 C 4.523438 -3.546875 4.609375 -3.25 4.609375 -2.90625 C 4.609375 -2.570312 4.53125 -2.28125 4.375 -2.03125 C 4.21875 -1.78125 3.992188 -1.585938 3.703125 -1.453125 L 4.703125 0 L 3.3125 0 Z M 3.296875 -2.90625 C 3.296875 -3.113281 3.226562 -3.273438 3.09375 -3.390625 C 2.957031 -3.515625 2.753906 -3.578125 2.484375 -3.578125 L 1.765625 -3.578125 L 1.765625 -2.234375 L 2.484375 -2.234375 C 2.753906 -2.234375 2.957031 -2.289062 3.09375 -2.40625 C 3.226562 -2.519531 3.296875 -2.6875 3.296875 -2.90625 Z M 3.296875 -2.90625" transform="translate(39.273 132.015)"/></g></g></g><g fill="#76A18A"><g><g><path d="M 3.546875 -2.40625 L 4.703125 -2.40625 L 4.703125 -0.5 C 4.429688 -0.300781 4.125 -0.148438 3.78125 -0.046875 C 3.445312 0.046875 3.109375 0.09375 2.765625 0.09375 C 2.285156 0.09375 1.847656 -0.00390625 1.453125 -0.203125 C 1.066406 -0.410156 0.765625 -0.695312 0.546875 -1.0625 C 0.328125 -1.425781 0.21875 -1.835938 0.21875 -2.296875 C 0.21875 -2.765625 0.328125 -3.175781 0.546875 -3.53125 C 0.765625 -3.894531 1.066406 -4.179688 1.453125 -4.390625 C 1.847656 -4.597656 2.296875 -4.703125 2.796875 -4.703125 C 3.222656 -4.703125 3.601562 -4.628906 3.9375 -4.484375 C 4.28125 -4.335938 4.566406 -4.128906 4.796875 -3.859375 L 3.96875 -3.109375 C 3.65625 -3.453125 3.285156 -3.625 2.859375 -3.625 C 2.460938 -3.625 2.144531 -3.503906 1.90625 -3.265625 C 1.664062 -3.023438 1.546875 -2.703125 1.546875 -2.296875 C 1.546875 -2.046875 1.597656 -1.820312 1.703125 -1.625 C 1.816406 -1.425781 1.96875 -1.269531 2.15625 -1.15625 C 2.351562 -1.039062 2.582031 -0.984375 2.84375 -0.984375 C 3.09375 -0.984375 3.328125 -1.035156 3.546875 -1.140625 Z M 3.546875 -2.40625" transform="translate(44.14 132.015)"/></g></g></g><g fill="#76A18A"><g><g><path d="M 3.546875 -0.890625 L 1.59375 -0.890625 L 1.234375 0 L -0.09375 0 L 1.9375 -4.609375 L 3.21875 -4.609375 L 5.265625 0 L 3.90625 0 Z M 3.171875 -1.859375 L 2.578125 -3.328125 L 1.984375 -1.859375 Z M 3.171875 -1.859375" transform="translate(49.203 132.015)"/></g></g></g><g fill="#76A18A"><g><g><path d="M 4.84375 -4.609375 L 4.84375 0 L 3.765625 0 L 1.734375 -2.453125 L 1.734375 0 L 0.453125 0 L 0.453125 -4.609375 L 1.53125 -4.609375 L 3.5625 -2.15625 L 3.5625 -4.609375 Z M 4.84375 -4.609375" transform="translate(54.373 132.015)"/></g></g></g><g fill="#76A18A"><g><g><path d="M 4.84375 -4.609375 L 4.84375 0 L 3.546875 0 L 3.546875 -1.796875 L 1.765625 -1.796875 L 1.765625 0 L 0.453125 0 L 0.453125 -4.609375 L 1.765625 -4.609375 L 1.765625 -2.875 L 3.546875 -2.875 L 3.546875 -4.609375 Z M 4.84375 -4.609375" transform="translate(61.587 132.015)"/></g></g></g><g fill="#76A18A"><g><g><path d="M 2.78125 0.09375 C 2.289062 0.09375 1.851562 -0.0078125 1.46875 -0.21875 C 1.082031 -0.425781 0.773438 -0.710938 0.546875 -1.078125 C 0.328125 -1.441406 0.21875 -1.847656 0.21875 -2.296875 C 0.21875 -2.753906 0.328125 -3.164062 0.546875 -3.53125 C 0.773438 -3.894531 1.082031 -4.179688 1.46875 -4.390625 C 1.851562 -4.597656 2.289062 -4.703125 2.78125 -4.703125 C 3.269531 -4.703125 3.707031 -4.597656 4.09375 -4.390625 C 4.476562 -4.179688 4.78125 -3.894531 5 -3.53125 C 5.226562 -3.164062 5.34375 -2.753906 5.34375 -2.296875 C 5.34375 -1.847656 5.226562 -1.441406 5 -1.078125 C 4.78125 -0.710938 4.476562 -0.425781 4.09375 -0.21875 C 3.707031 -0.0078125 3.269531 0.09375 2.78125 0.09375 Z M 2.78125 -0.984375 C 3.007812 -0.984375 3.21875 -1.035156 3.40625 -1.140625 C 3.601562 -1.253906 3.753906 -1.410156 3.859375 -1.609375 C 3.972656 -1.816406 4.03125 -2.046875 4.03125 -2.296875 C 4.03125 -2.554688 3.972656 -2.785156 3.859375 -2.984375 C 3.753906 -3.191406 3.601562 -3.347656 3.40625 -3.453125 C 3.21875 -3.566406 3.007812 -3.625 2.78125 -3.625 C 2.550781 -3.625 2.34375 -3.566406 2.15625 -3.453125 C 1.96875 -3.347656 1.816406 -3.191406 1.703125 -2.984375 C 1.597656 -2.785156 1.546875 -2.554688 1.546875 -2.296875 C 1.546875 -2.046875 1.597656 -1.816406 1.703125 -1.609375 C 1.816406 -1.410156 1.96875 -1.253906 2.15625 -1.140625 C 2.34375 -1.035156 2.550781 -0.984375 2.78125 -0.984375 Z M 2.78125 -0.984375" transform="translate(66.888 132.015)"/></g></g></g><g fill="#76A18A"><g><g><path d="M 2.578125 0.09375 C 1.898438 0.09375 1.367188 -0.09375 0.984375 -0.46875 C 0.609375 -0.84375 0.421875 -1.367188 0.421875 -2.046875 L 0.421875 -4.609375 L 1.71875 -4.609375 L 1.71875 -2.09375 C 1.71875 -1.351562 2.007812 -0.984375 2.59375 -0.984375 C 3.175781 -0.984375 3.46875 -1.351562 3.46875 -2.09375 L 3.46875 -4.609375 L 4.75 -4.609375 L 4.75 -2.046875 C 4.75 -1.367188 4.554688 -0.84375 4.171875 -0.46875 C 3.796875 -0.09375 3.265625 0.09375 2.578125 0.09375 Z M 2.578125 0.09375" transform="translate(72.452 132.015)"/></g></g></g><g fill="#76A18A"><g><g><path d="M 2.078125 0.09375 C 1.703125 0.09375 1.335938 0.046875 0.984375 -0.046875 C 0.640625 -0.140625 0.359375 -0.265625 0.140625 -0.421875 L 0.5625 -1.375 C 0.769531 -1.238281 1.007812 -1.128906 1.28125 -1.046875 C 1.550781 -0.960938 1.816406 -0.921875 2.078125 -0.921875 C 2.578125 -0.921875 2.828125 -1.046875 2.828125 -1.296875 C 2.828125 -1.429688 2.753906 -1.53125 2.609375 -1.59375 C 2.472656 -1.65625 2.25 -1.722656 1.9375 -1.796875 C 1.59375 -1.867188 1.300781 -1.945312 1.0625 -2.03125 C 0.832031 -2.113281 0.632812 -2.25 0.46875 -2.4375 C 0.300781 -2.625 0.21875 -2.878906 0.21875 -3.203125 C 0.21875 -3.484375 0.289062 -3.734375 0.4375 -3.953125 C 0.59375 -4.179688 0.820312 -4.363281 1.125 -4.5 C 1.4375 -4.632812 1.8125 -4.703125 2.25 -4.703125 C 2.550781 -4.703125 2.847656 -4.664062 3.140625 -4.59375 C 3.441406 -4.53125 3.703125 -4.429688 3.921875 -4.296875 L 3.53125 -3.328125 C 3.09375 -3.566406 2.664062 -3.6875 2.25 -3.6875 C 1.988281 -3.6875 1.796875 -3.644531 1.671875 -3.5625 C 1.554688 -3.488281 1.5 -3.390625 1.5 -3.265625 C 1.5 -3.140625 1.566406 -3.046875 1.703125 -2.984375 C 1.847656 -2.929688 2.078125 -2.867188 2.390625 -2.796875 C 2.742188 -2.722656 3.035156 -2.644531 3.265625 -2.5625 C 3.492188 -2.476562 3.691406 -2.34375 3.859375 -2.15625 C 4.035156 -1.96875 4.125 -1.710938 4.125 -1.390625 C 4.125 -1.117188 4.046875 -0.867188 3.890625 -0.640625 C 3.734375 -0.421875 3.5 -0.242188 3.1875 -0.109375 C 2.882812 0.0234375 2.515625 0.09375 2.078125 0.09375 Z M 2.078125 0.09375" transform="translate(77.621 132.015)"/></g></g></g><g fill="#76A18A"><g><g><path d="M 4.15625 -1 L 4.15625 0 L 0.453125 0 L 0.453125 -4.609375 L 4.078125 -4.609375 L 4.078125 -3.59375 L 1.75 -3.59375 L 1.75 -2.828125 L 3.796875 -2.828125 L 3.796875 -1.84375 L 1.75 -1.84375 L 1.75 -1 Z M 4.15625 -1" transform="translate(81.876 132.015)"/></g></g></g><g fill="#76A18A"><g><g><path d="M 0.453125 -4.609375 L 1.765625 -4.609375 L 1.765625 -1.03125 L 3.953125 -1.03125 L 3.953125 0 L 0.453125 0 Z M 0.453125 -4.609375" transform="translate(86.296 132.015)"/></g></g></g></svg>