<svg xmlns="http://www.w3.org/2000/svg" width="117.75" viewBox="0 0 117.75 145.5" height="145.5" version="1.0"><defs><clipPath id="a"><path d="M 5.558594 1.308594 L 111.921875 1.308594 L 111.921875 144.371094 L 5.558594 144.371094 Z M 5.558594 1.308594"/></clipPath><clipPath id="b"><path d="M 37 101 L 62 101 L 62 138.320312 L 37 138.320312 Z M 37 101"/></clipPath><clipPath id="c"><path d="M 69 97.121094 L 70 97.121094 L 70 99 L 69 99 Z M 69 97.121094"/></clipPath><clipPath id="d"><path d="M 70 101 L 70.589844 101 L 70.589844 103 L 70 103 Z M 70 101"/></clipPath><clipPath id="e"><path d="M 62 97.121094 L 63 97.121094 L 63 98 L 62 98 Z M 62 97.121094"/></clipPath></defs><g clip-path="url(#a)"><path fill="#FC4E00" d="M 17.351562 1.308594 L 100.132812 1.308594 C 100.90625 1.308594 101.671875 1.386719 102.429688 1.535156 C 103.1875 1.6875 103.925781 1.914062 104.636719 2.210938 C 105.351562 2.507812 106.03125 2.871094 106.675781 3.304688 C 107.316406 3.734375 107.914062 4.226562 108.460938 4.777344 C 109.007812 5.324219 109.496094 5.921875 109.925781 6.570312 C 110.355469 7.214844 110.714844 7.898438 111.011719 8.617188 C 111.308594 9.335938 111.53125 10.074219 111.683594 10.835938 C 111.832031 11.597656 111.910156 12.367188 111.910156 13.144531 L 111.910156 132.535156 C 111.910156 133.3125 111.832031 134.082031 111.683594 134.84375 C 111.53125 135.605469 111.308594 136.347656 111.011719 137.0625 C 110.714844 137.78125 110.355469 138.464844 109.925781 139.109375 C 109.496094 139.757812 109.007812 140.355469 108.460938 140.90625 C 107.914062 141.453125 107.316406 141.945312 106.675781 142.375 C 106.03125 142.808594 105.351562 143.171875 104.636719 143.46875 C 103.925781 143.769531 103.1875 143.992188 102.429688 144.144531 C 101.671875 144.296875 100.90625 144.371094 100.132812 144.371094 L 17.351562 144.371094 C 16.578125 144.371094 15.8125 144.296875 15.050781 144.144531 C 14.292969 143.992188 13.558594 143.769531 12.84375 143.46875 C 12.128906 143.171875 11.449219 142.808594 10.804688 142.375 C 10.164062 141.945312 9.570312 141.453125 9.023438 140.90625 C 8.476562 140.355469 7.988281 139.757812 7.558594 139.109375 C 7.128906 138.464844 6.765625 137.78125 6.46875 137.0625 C 6.171875 136.347656 5.949219 135.605469 5.796875 134.84375 C 5.648438 134.082031 5.570312 133.3125 5.570312 132.535156 L 5.570312 13.144531 C 5.570312 12.367188 5.648438 11.597656 5.796875 10.835938 C 5.949219 10.074219 6.171875 9.335938 6.46875 8.617188 C 6.765625 7.898438 7.128906 7.214844 7.558594 6.570312 C 7.988281 5.921875 8.476562 5.324219 9.023438 4.777344 C 9.570312 4.226562 10.164062 3.734375 10.804688 3.304688 C 11.449219 2.871094 12.128906 2.507812 12.84375 2.210938 C 13.558594 1.914062 14.292969 1.6875 15.050781 1.535156 C 15.8125 1.386719 16.578125 1.308594 17.351562 1.308594 Z M 17.351562 1.308594"/></g><g><g><g><path d="M 3.140625 -7.78125 L 0.0625 -7.78125 L 0.0625 -10.046875 L 9.046875 -10.046875 L 9.046875 -7.78125 L 5.984375 -7.78125 L 5.984375 0 L 3.140625 0 Z M 3.140625 -7.78125" transform="translate(11.837 37.562)"/></g></g></g><g><g><g><path d="M 10.5625 -10.046875 L 10.5625 0 L 7.71875 0 L 7.71875 -3.921875 L 3.84375 -3.921875 L 3.84375 0 L 1 0 L 1 -10.046875 L 3.84375 -10.046875 L 3.84375 -6.265625 L 7.71875 -6.265625 L 7.71875 -10.046875 Z M 10.5625 -10.046875" transform="translate(20.933 37.562)"/></g></g></g><g><g><g><path d="M 9.0625 -2.1875 L 9.0625 0 L 1 0 L 1 -10.046875 L 8.875 -10.046875 L 8.875 -7.84375 L 3.8125 -7.84375 L 3.8125 -6.15625 L 8.28125 -6.15625 L 8.28125 -4.03125 L 3.8125 -4.03125 L 3.8125 -2.1875 Z M 9.0625 -2.1875" transform="translate(32.479 37.562)"/></g></g></g><g><g><g><path d="M 4.53125 0.203125 C 3.71875 0.203125 2.925781 0.101562 2.15625 -0.09375 C 1.394531 -0.300781 0.773438 -0.570312 0.296875 -0.90625 L 1.234375 -3 C 1.679688 -2.695312 2.203125 -2.457031 2.796875 -2.28125 C 3.390625 -2.101562 3.972656 -2.015625 4.546875 -2.015625 C 5.640625 -2.015625 6.1875 -2.285156 6.1875 -2.828125 C 6.1875 -3.109375 6.03125 -3.316406 5.71875 -3.453125 C 5.40625 -3.597656 4.90625 -3.75 4.21875 -3.90625 C 3.457031 -4.0625 2.820312 -4.234375 2.3125 -4.421875 C 1.8125 -4.609375 1.378906 -4.90625 1.015625 -5.3125 C 0.648438 -5.726562 0.46875 -6.285156 0.46875 -6.984375 C 0.46875 -7.597656 0.632812 -8.148438 0.96875 -8.640625 C 1.3125 -9.128906 1.8125 -9.515625 2.46875 -9.796875 C 3.132812 -10.085938 3.953125 -10.234375 4.921875 -10.234375 C 5.578125 -10.234375 6.222656 -10.160156 6.859375 -10.015625 C 7.503906 -9.867188 8.070312 -9.648438 8.5625 -9.359375 L 7.6875 -7.265625 C 6.726562 -7.773438 5.800781 -8.03125 4.90625 -8.03125 C 4.34375 -8.03125 3.929688 -7.945312 3.671875 -7.78125 C 3.410156 -7.613281 3.28125 -7.394531 3.28125 -7.125 C 3.28125 -6.863281 3.429688 -6.664062 3.734375 -6.53125 C 4.046875 -6.394531 4.539062 -6.253906 5.21875 -6.109375 C 5.988281 -5.941406 6.625 -5.765625 7.125 -5.578125 C 7.625 -5.398438 8.054688 -5.109375 8.421875 -4.703125 C 8.796875 -4.296875 8.984375 -3.742188 8.984375 -3.046875 C 8.984375 -2.441406 8.8125 -1.894531 8.46875 -1.40625 C 8.132812 -0.914062 7.632812 -0.523438 6.96875 -0.234375 C 6.300781 0.0546875 5.488281 0.203125 4.53125 0.203125 Z M 4.53125 0.203125" transform="translate(11.837 53.291)"/></g></g></g><g><g><g><path d="M 5.640625 0.203125 C 4.148438 0.203125 2.988281 -0.203125 2.15625 -1.015625 C 1.332031 -1.828125 0.921875 -2.976562 0.921875 -4.46875 L 0.921875 -10.046875 L 3.765625 -10.046875 L 3.765625 -4.5625 C 3.765625 -2.957031 4.398438 -2.15625 5.671875 -2.15625 C 6.929688 -2.15625 7.5625 -2.957031 7.5625 -4.5625 L 7.5625 -10.046875 L 10.359375 -10.046875 L 10.359375 -4.46875 C 10.359375 -2.976562 9.941406 -1.828125 9.109375 -1.015625 C 8.285156 -0.203125 7.128906 0.203125 5.640625 0.203125 Z M 5.640625 0.203125" transform="translate(21.105 53.291)"/></g></g></g><g><g><g><path d="M 8.71875 -5.234375 C 9.289062 -5.035156 9.738281 -4.722656 10.0625 -4.296875 C 10.394531 -3.867188 10.5625 -3.351562 10.5625 -2.75 C 10.5625 -1.875 10.207031 -1.195312 9.5 -0.71875 C 8.789062 -0.238281 7.765625 0 6.421875 0 L 1 0 L 1 -10.046875 L 6.140625 -10.046875 C 7.421875 -10.046875 8.394531 -9.804688 9.0625 -9.328125 C 9.726562 -8.859375 10.0625 -8.222656 10.0625 -7.421875 C 10.0625 -6.941406 9.941406 -6.507812 9.703125 -6.125 C 9.472656 -5.75 9.144531 -5.453125 8.71875 -5.234375 Z M 3.8125 -7.984375 L 3.8125 -6.046875 L 5.765625 -6.046875 C 6.722656 -6.046875 7.203125 -6.375 7.203125 -7.03125 C 7.203125 -7.664062 6.722656 -7.984375 5.765625 -7.984375 Z M 6.203125 -2.046875 C 7.191406 -2.046875 7.6875 -2.382812 7.6875 -3.0625 C 7.6875 -3.75 7.191406 -4.09375 6.203125 -4.09375 L 3.8125 -4.09375 L 3.8125 -2.046875 Z M 6.203125 -2.046875" transform="translate(32.364 53.291)"/></g></g></g><g><g><g><path d="M 3.140625 -7.78125 L 0.0625 -7.78125 L 0.0625 -10.046875 L 9.046875 -10.046875 L 9.046875 -7.78125 L 5.984375 -7.78125 L 5.984375 0 L 3.140625 0 Z M 3.140625 -7.78125" transform="translate(43.38 53.291)"/></g></g></g><g><g><g><path d="M 1 -10.046875 L 3.84375 -10.046875 L 3.84375 -2.25 L 8.640625 -2.25 L 8.640625 0 L 1 0 Z M 1 -10.046875" transform="translate(52.477 53.291)"/></g></g></g><g><g><g><path d="M 9.0625 -2.1875 L 9.0625 0 L 1 0 L 1 -10.046875 L 8.875 -10.046875 L 8.875 -7.84375 L 3.8125 -7.84375 L 3.8125 -6.15625 L 8.28125 -6.15625 L 8.28125 -4.03125 L 3.8125 -4.03125 L 3.8125 -2.1875 Z M 9.0625 -2.1875" transform="translate(61.215 53.291)"/></g></g></g><g><g><g><path d="M 7.734375 -1.953125 L 3.484375 -1.953125 L 2.703125 0 L -0.203125 0 L 4.234375 -10.046875 L 7.03125 -10.046875 L 11.46875 0 L 8.515625 0 Z M 6.90625 -4.046875 L 5.609375 -7.265625 L 4.3125 -4.046875 Z M 6.90625 -4.046875" transform="translate(11.837 69.02)"/></g></g></g><g><g><g><path d="M 5.390625 -2.671875 L 3.84375 -2.671875 L 3.84375 0 L 1 0 L 1 -10.046875 L 5.59375 -10.046875 C 6.5 -10.046875 7.285156 -9.894531 7.953125 -9.59375 C 8.628906 -9.289062 9.148438 -8.859375 9.515625 -8.296875 C 9.878906 -7.734375 10.0625 -7.078125 10.0625 -6.328125 C 10.0625 -5.597656 9.890625 -4.960938 9.546875 -4.421875 C 9.203125 -3.878906 8.71875 -3.457031 8.09375 -3.15625 L 10.25 0 L 7.21875 0 Z M 7.1875 -6.328125 C 7.1875 -6.796875 7.035156 -7.15625 6.734375 -7.40625 C 6.441406 -7.664062 6.003906 -7.796875 5.421875 -7.796875 L 3.84375 -7.796875 L 3.84375 -4.859375 L 5.421875 -4.859375 C 6.003906 -4.859375 6.441406 -4.984375 6.734375 -5.234375 C 7.035156 -5.492188 7.1875 -5.859375 7.1875 -6.328125 Z M 7.1875 -6.328125" transform="translate(23.096 69.02)"/></g></g></g><g><g><g><path d="M 3.140625 -7.78125 L 0.0625 -7.78125 L 0.0625 -10.046875 L 9.046875 -10.046875 L 9.046875 -7.78125 L 5.984375 -7.78125 L 5.984375 0 L 3.140625 0 Z M 3.140625 -7.78125" transform="translate(33.697 69.02)"/></g></g></g><g><g><g><path d="M 6.0625 0.203125 C 5 0.203125 4.046875 -0.0195312 3.203125 -0.46875 C 2.359375 -0.914062 1.691406 -1.535156 1.203125 -2.328125 C 0.722656 -3.128906 0.484375 -4.023438 0.484375 -5.015625 C 0.484375 -6.015625 0.722656 -6.910156 1.203125 -7.703125 C 1.691406 -8.492188 2.359375 -9.113281 3.203125 -9.5625 C 4.046875 -10.007812 5 -10.234375 6.0625 -10.234375 C 7.125 -10.234375 8.078125 -10.007812 8.921875 -9.5625 C 9.773438 -9.113281 10.441406 -8.492188 10.921875 -7.703125 C 11.398438 -6.910156 11.640625 -6.015625 11.640625 -5.015625 C 11.640625 -4.023438 11.398438 -3.128906 10.921875 -2.328125 C 10.441406 -1.535156 9.773438 -0.914062 8.921875 -0.46875 C 8.078125 -0.0195312 7.125 0.203125 6.0625 0.203125 Z M 6.0625 -2.15625 C 6.570312 -2.15625 7.03125 -2.273438 7.4375 -2.515625 C 7.851562 -2.753906 8.179688 -3.085938 8.421875 -3.515625 C 8.660156 -3.953125 8.78125 -4.453125 8.78125 -5.015625 C 8.78125 -5.578125 8.660156 -6.078125 8.421875 -6.515625 C 8.179688 -6.953125 7.851562 -7.289062 7.4375 -7.53125 C 7.03125 -7.769531 6.570312 -7.890625 6.0625 -7.890625 C 5.5625 -7.890625 5.101562 -7.769531 4.6875 -7.53125 C 4.28125 -7.289062 3.957031 -6.953125 3.71875 -6.515625 C 3.476562 -6.078125 3.359375 -5.578125 3.359375 -5.015625 C 3.359375 -4.453125 3.476562 -3.953125 3.71875 -3.515625 C 3.957031 -3.085938 4.28125 -2.753906 4.6875 -2.515625 C 5.101562 -2.273438 5.5625 -2.15625 6.0625 -2.15625 Z M 6.0625 -2.15625" transform="translate(46.961 69.02)"/></g></g></g><g><g><g><path d="M 3.84375 -7.84375 L 3.84375 -5.640625 L 8.28125 -5.640625 L 8.28125 -3.4375 L 3.84375 -3.4375 L 3.84375 0 L 1 0 L 1 -10.046875 L 8.875 -10.046875 L 8.875 -7.84375 Z M 3.84375 -7.84375" transform="translate(59.08 69.02)"/></g></g></g><g><g><g><path d="M 10.5625 -10.046875 L 10.5625 0 L 8.21875 0 L 3.78125 -5.34375 L 3.78125 0 L 1 0 L 1 -10.046875 L 3.34375 -10.046875 L 7.78125 -4.6875 L 7.78125 -10.046875 Z M 10.5625 -10.046875" transform="translate(11.837 84.75)"/></g></g></g><g><g><g><path d="M 6.0625 0.203125 C 5 0.203125 4.046875 -0.0195312 3.203125 -0.46875 C 2.359375 -0.914062 1.691406 -1.535156 1.203125 -2.328125 C 0.722656 -3.128906 0.484375 -4.023438 0.484375 -5.015625 C 0.484375 -6.015625 0.722656 -6.910156 1.203125 -7.703125 C 1.691406 -8.492188 2.359375 -9.113281 3.203125 -9.5625 C 4.046875 -10.007812 5 -10.234375 6.0625 -10.234375 C 7.125 -10.234375 8.078125 -10.007812 8.921875 -9.5625 C 9.773438 -9.113281 10.441406 -8.492188 10.921875 -7.703125 C 11.398438 -6.910156 11.640625 -6.015625 11.640625 -5.015625 C 11.640625 -4.023438 11.398438 -3.128906 10.921875 -2.328125 C 10.441406 -1.535156 9.773438 -0.914062 8.921875 -0.46875 C 8.078125 -0.0195312 7.125 0.203125 6.0625 0.203125 Z M 6.0625 -2.15625 C 6.570312 -2.15625 7.03125 -2.273438 7.4375 -2.515625 C 7.851562 -2.753906 8.179688 -3.085938 8.421875 -3.515625 C 8.660156 -3.953125 8.78125 -4.453125 8.78125 -5.015625 C 8.78125 -5.578125 8.660156 -6.078125 8.421875 -6.515625 C 8.179688 -6.953125 7.851562 -7.289062 7.4375 -7.53125 C 7.03125 -7.769531 6.570312 -7.890625 6.0625 -7.890625 C 5.5625 -7.890625 5.101562 -7.769531 4.6875 -7.53125 C 4.28125 -7.289062 3.957031 -6.953125 3.71875 -6.515625 C 3.476562 -6.078125 3.359375 -5.578125 3.359375 -5.015625 C 3.359375 -4.453125 3.476562 -3.953125 3.71875 -3.515625 C 3.957031 -3.085938 4.28125 -2.753906 4.6875 -2.515625 C 5.101562 -2.273438 5.5625 -2.15625 6.0625 -2.15625 Z M 6.0625 -2.15625" transform="translate(23.383 84.75)"/></g></g></g><g><g><g><path d="M 3.140625 -7.78125 L 0.0625 -7.78125 L 0.0625 -10.046875 L 9.046875 -10.046875 L 9.046875 -7.78125 L 5.984375 -7.78125 L 5.984375 0 L 3.140625 0 Z M 3.140625 -7.78125" transform="translate(35.501 84.75)"/></g></g></g><g><g><g><path d="M 7.734375 -5.234375 L 10.234375 -5.234375 L 10.234375 -1.078125 C 9.660156 -0.660156 9 -0.34375 8.25 -0.125 C 7.507812 0.09375 6.769531 0.203125 6.03125 0.203125 C 4.976562 0.203125 4.03125 -0.0195312 3.1875 -0.46875 C 2.34375 -0.914062 1.679688 -1.535156 1.203125 -2.328125 C 0.722656 -3.117188 0.484375 -4.015625 0.484375 -5.015625 C 0.484375 -6.023438 0.722656 -6.925781 1.203125 -7.71875 C 1.679688 -8.507812 2.34375 -9.125 3.1875 -9.5625 C 4.039062 -10.007812 5.003906 -10.234375 6.078125 -10.234375 C 7.015625 -10.234375 7.851562 -10.078125 8.59375 -9.765625 C 9.34375 -9.453125 9.96875 -9 10.46875 -8.40625 L 8.65625 -6.765625 C 7.976562 -7.515625 7.164062 -7.890625 6.21875 -7.890625 C 5.363281 -7.890625 4.671875 -7.628906 4.140625 -7.109375 C 3.617188 -6.585938 3.359375 -5.890625 3.359375 -5.015625 C 3.359375 -4.460938 3.476562 -3.96875 3.71875 -3.53125 C 3.957031 -3.101562 4.289062 -2.765625 4.71875 -2.515625 C 5.144531 -2.273438 5.640625 -2.15625 6.203125 -2.15625 C 6.742188 -2.15625 7.253906 -2.265625 7.734375 -2.484375 Z M 7.734375 -5.234375" transform="translate(11.837 100.48)"/></g></g></g><g><g><g><path d="M 1 -10.046875 L 3.84375 -10.046875 L 3.84375 0 L 1 0 Z M 1 -10.046875" transform="translate(22.867 100.48)"/></g></g></g><g><g><g><path d="M 11.1875 -10.046875 L 6.890625 0 L 4.09375 0 L -0.203125 -10.046875 L 2.875 -10.046875 L 5.59375 -3.5 L 8.375 -10.046875 Z M 11.1875 -10.046875" transform="translate(27.723 100.48)"/></g></g></g><g><g><g><path d="M 1 -10.046875 L 3.84375 -10.046875 L 3.84375 0 L 1 0 Z M 1 -10.046875" transform="translate(38.696 100.48)"/></g></g></g><g><g><g><path d="M 10.5625 -10.046875 L 10.5625 0 L 8.21875 0 L 3.78125 -5.34375 L 3.78125 0 L 1 0 L 1 -10.046875 L 3.34375 -10.046875 L 7.78125 -4.6875 L 7.78125 -10.046875 Z M 10.5625 -10.046875" transform="translate(43.552 100.48)"/></g></g></g><g><g><g><path d="M 7.734375 -5.234375 L 10.234375 -5.234375 L 10.234375 -1.078125 C 9.660156 -0.660156 9 -0.34375 8.25 -0.125 C 7.507812 0.09375 6.769531 0.203125 6.03125 0.203125 C 4.976562 0.203125 4.03125 -0.0195312 3.1875 -0.46875 C 2.34375 -0.914062 1.679688 -1.535156 1.203125 -2.328125 C 0.722656 -3.117188 0.484375 -4.015625 0.484375 -5.015625 C 0.484375 -6.023438 0.722656 -6.925781 1.203125 -7.71875 C 1.679688 -8.507812 2.34375 -9.125 3.1875 -9.5625 C 4.039062 -10.007812 5.003906 -10.234375 6.078125 -10.234375 C 7.015625 -10.234375 7.851562 -10.078125 8.59375 -9.765625 C 9.34375 -9.453125 9.96875 -9 10.46875 -8.40625 L 8.65625 -6.765625 C 7.976562 -7.515625 7.164062 -7.890625 6.21875 -7.890625 C 5.363281 -7.890625 4.671875 -7.628906 4.140625 -7.109375 C 3.617188 -6.585938 3.359375 -5.890625 3.359375 -5.015625 C 3.359375 -4.460938 3.476562 -3.96875 3.71875 -3.53125 C 3.957031 -3.101562 4.289062 -2.765625 4.71875 -2.515625 C 5.144531 -2.273438 5.640625 -2.15625 6.203125 -2.15625 C 6.742188 -2.15625 7.253906 -2.265625 7.734375 -2.484375 Z M 7.734375 -5.234375" transform="translate(55.098 100.48)"/></g></g></g><g><g><g><path d="M 7.734375 -1.953125 L 3.484375 -1.953125 L 2.703125 0 L -0.203125 0 L 4.234375 -10.046875 L 7.03125 -10.046875 L 11.46875 0 L 8.515625 0 Z M 6.90625 -4.046875 L 5.609375 -7.265625 L 4.3125 -4.046875 Z M 6.90625 -4.046875" transform="translate(11.837 116.209)"/></g></g></g><g><g><g><path d="M 3.84375 -7.84375 L 3.84375 -5.640625 L 8.28125 -5.640625 L 8.28125 -3.4375 L 3.84375 -3.4375 L 3.84375 0 L 1 0 L 1 -10.046875 L 8.875 -10.046875 L 8.875 -7.84375 Z M 3.84375 -7.84375" transform="translate(27.265 116.209)"/></g></g></g><g><g><g><path d="M 5.640625 0.203125 C 4.148438 0.203125 2.988281 -0.203125 2.15625 -1.015625 C 1.332031 -1.828125 0.921875 -2.976562 0.921875 -4.46875 L 0.921875 -10.046875 L 3.765625 -10.046875 L 3.765625 -4.5625 C 3.765625 -2.957031 4.398438 -2.15625 5.671875 -2.15625 C 6.929688 -2.15625 7.5625 -2.957031 7.5625 -4.5625 L 7.5625 -10.046875 L 10.359375 -10.046875 L 10.359375 -4.46875 C 10.359375 -2.976562 9.941406 -1.828125 9.109375 -1.015625 C 8.285156 -0.203125 7.128906 0.203125 5.640625 0.203125 Z M 5.640625 0.203125" transform="translate(36.461 116.209)"/></g></g></g><g><g><g><path d="M 4.875 -3.640625 L 3.8125 -2.515625 L 3.8125 0 L 1 0 L 1 -10.046875 L 3.8125 -10.046875 L 3.8125 -5.859375 L 7.703125 -10.046875 L 10.828125 -10.046875 L 6.734375 -5.59375 L 11.046875 0 L 7.75 0 Z M 4.875 -3.640625" transform="translate(60.219 116.209)"/></g></g></g><g clip-path="url(#b)"><path d="M 59.902344 115.949219 C 60.222656 115.828125 60.476562 115.585938 60.648438 115.289062 C 60.863281 114.917969 61.058594 114.464844 60.96875 114.035156 C 60.898438 113.707031 60.671875 113.4375 60.546875 113.128906 C 60.476562 112.964844 60.449219 112.761719 60.484375 112.589844 C 60.535156 112.339844 60.457031 112.078125 60.269531 111.90625 C 60.046875 111.703125 59.855469 111.460938 59.675781 111.210938 C 59.550781 111.035156 59.613281 110.777344 59.8125 110.695312 C 59.996094 110.625 60.160156 110.507812 60.296875 110.363281 C 60.664062 109.976562 60.417969 109.335938 59.890625 109.285156 C 59.855469 109.28125 59.824219 109.277344 59.789062 109.277344 C 59.5625 109.261719 59.414062 109.082031 59.445312 108.855469 C 59.464844 108.71875 59.46875 108.578125 59.460938 108.441406 C 59.449219 108.265625 59.285156 108.144531 59.113281 108.1875 C 58.964844 108.226562 58.808594 108.253906 58.65625 108.273438 C 58.113281 108.332031 57.792969 107.675781 58.171875 107.28125 C 59.398438 106.003906 60.496094 104.601562 61.445312 103.109375 C 61.503906 103.015625 61.378906 102.914062 61.300781 102.992188 C 59.964844 104.34375 58.59375 105.664062 57.195312 106.949219 C 57.050781 107.082031 56.820312 106.960938 56.84375 106.769531 L 56.925781 106.035156 C 56.738281 106.085938 56.609375 106.300781 56.65625 106.492188 C 56.378906 106.554688 56.09375 106.472656 55.847656 106.324219 C 55.726562 106.25 55.578125 106.363281 55.609375 106.5 C 55.625 106.589844 55.675781 106.667969 55.746094 106.722656 C 55.363281 106.484375 55.003906 106.203125 54.679688 105.890625 C 54.507812 105.636719 54.425781 105.332031 54.347656 105.035156 C 54.328125 104.972656 54.3125 104.90625 54.3125 104.835938 C 54.316406 104.765625 54.339844 104.695312 54.363281 104.628906 C 54.453125 104.371094 54.539062 104.117188 54.628906 103.859375 C 54.632812 103.84375 54.640625 103.832031 54.636719 103.816406 C 54.632812 103.773438 54.574219 103.753906 54.535156 103.769531 C 54.496094 103.789062 54.472656 103.828125 54.453125 103.867188 C 54.359375 104.03125 54.265625 104.195312 54.171875 104.359375 C 54.074219 104.527344 53.976562 104.699219 53.839844 104.832031 C 53.828125 104.84375 53.816406 104.855469 53.804688 104.863281 C 53.523438 104.542969 52.972656 104.671875 52.867188 105.109375 C 52.796875 105.410156 52.761719 105.722656 52.761719 106.03125 C 52.511719 106.148438 52.332031 105.957031 52.152344 105.71875 C 52.195312 105.546875 52.128906 105.363281 52.023438 105.21875 C 51.910156 105.070312 51.757812 104.957031 51.617188 104.832031 C 50.796875 104.105469 50.417969 103.015625 49.996094 102.003906 C 49.957031 101.90625 49.914062 101.808594 49.84375 101.734375 C 49.746094 102.1875 50.03125 102.625 50.226562 103.046875 C 50.535156 103.703125 50.640625 104.4375 50.917969 105.109375 C 50.929688 105.136719 50.941406 105.167969 50.957031 105.195312 C 50.929688 105.210938 50.902344 105.226562 50.875 105.242188 C 50.371094 105.53125 49.867188 105.816406 49.363281 106.105469 C 49.222656 106.1875 49.0625 106.269531 48.914062 106.210938 C 48.726562 106.140625 48.648438 105.882812 48.359375 105.988281 C 48.1875 106.050781 48.058594 106.199219 48 106.375 C 47.898438 106.652344 47.816406 106.953125 47.730469 107.25 C 47.191406 107.386719 46.628906 107.417969 46.105469 107.246094 C 45.84375 107.160156 45.597656 107.023438 45.34375 106.910156 C 44.738281 106.644531 44.074219 106.496094 43.511719 106.152344 C 43.207031 105.964844 42.9375 105.726562 42.632812 105.550781 C 42.503906 105.480469 42.332031 105.550781 42.300781 105.695312 C 42.300781 105.699219 42.300781 105.699219 42.296875 105.703125 C 42.273438 105.808594 42.335938 105.914062 42.4375 105.957031 C 42.671875 106.058594 42.898438 106.179688 43.117188 106.316406 C 43.316406 106.445312 43.511719 106.589844 43.726562 106.699219 C 43.910156 106.789062 44.105469 106.851562 44.296875 106.925781 C 44.933594 107.171875 45.519531 107.539062 46.101562 107.902344 C 46.253906 108 46.414062 108.101562 46.523438 108.25 C 46.613281 108.371094 46.660156 108.507812 46.699219 108.648438 C 46.617188 108.734375 46.535156 108.816406 46.441406 108.890625 C 46.394531 108.902344 46.347656 108.914062 46.300781 108.925781 C 46.148438 108.945312 45.992188 108.953125 45.839844 108.957031 C 45.550781 108.910156 45.3125 108.917969 45.132812 108.925781 C 44.992188 108.929688 44.875 108.9375 44.78125 108.941406 C 44.628906 108.945312 44.515625 108.949219 44.421875 108.964844 C 44.453125 109.003906 44.511719 109.027344 44.59375 109.03125 C 44.632812 109.03125 44.679688 109.027344 44.726562 109.027344 C 44.910156 109.023438 45.148438 109.058594 45.507812 109.175781 C 45.503906 109.191406 45.503906 109.203125 45.507812 109.21875 C 45.511719 109.242188 45.527344 109.261719 45.535156 109.28125 C 45.5625 109.335938 45.550781 109.398438 45.527344 109.457031 C 44.902344 109.734375 44.226562 109.882812 43.554688 110.007812 C 41.753906 110.34375 39.929688 110.558594 38.101562 110.644531 C 38.003906 110.652344 37.910156 110.707031 37.871094 110.800781 C 37.867188 110.800781 37.867188 110.808594 37.863281 110.8125 C 37.792969 110.980469 37.921875 111.175781 38.109375 111.183594 C 39.542969 111.265625 40.984375 111.257812 42.417969 111.167969 C 43.179688 111.121094 43.957031 111.046875 44.703125 111.210938 C 44.828125 111.238281 44.953125 111.273438 45.074219 111.308594 C 44.957031 111.5625 44.753906 111.777344 44.558594 111.980469 C 45.003906 111.910156 45.4375 111.773438 45.847656 111.578125 C 45.855469 111.582031 45.867188 111.585938 45.875 111.589844 C 45.8125 111.6875 45.703125 111.746094 45.605469 111.8125 C 45.496094 111.890625 45.394531 112.019531 45.441406 112.144531 C 45.589844 112.183594 45.671875 111.886719 45.8125 111.9375 C 45.753906 112.511719 45.511719 113.0625 45.136719 113.5 C 45.089844 113.550781 45.039062 113.605469 45.015625 113.675781 C 44.988281 113.742188 44.996094 113.824219 45.046875 113.875 C 45.125 113.945312 45.261719 113.894531 45.320312 113.804688 C 45.378906 113.714844 45.386719 113.601562 45.410156 113.5 C 45.523438 113.019531 45.996094 112.65625 45.996094 112.167969 C 45.996094 112.09375 45.988281 112.019531 46.003906 111.949219 C 46.019531 111.878906 46.074219 111.808594 46.148438 111.804688 C 46.144531 111.972656 46.140625 112.144531 46.140625 112.3125 C 46.203125 112.296875 46.273438 112.292969 46.34375 112.304688 C 46.316406 112.410156 46.273438 112.511719 46.21875 112.605469 C 46.269531 112.613281 46.320312 112.636719 46.363281 112.667969 C 46.300781 112.808594 46.238281 112.945312 46.171875 113.082031 C 46.285156 113.09375 46.390625 113.054688 46.492188 112.996094 C 46.503906 113.144531 46.566406 113.277344 46.699219 113.378906 C 46.882812 113.519531 47.128906 113.53125 47.34375 113.449219 C 47.484375 113.394531 47.605469 113.3125 47.714844 113.21875 C 47.742188 113.226562 47.769531 113.234375 47.796875 113.238281 C 47.804688 113.238281 47.808594 113.238281 47.816406 113.238281 C 47.804688 113.300781 47.800781 113.367188 47.800781 113.433594 C 47.800781 113.480469 47.804688 113.53125 47.839844 113.558594 C 47.886719 113.589844 47.945312 113.558594 47.996094 113.535156 C 48.09375 113.488281 48.199219 113.464844 48.304688 113.464844 C 48.328125 113.464844 48.351562 113.46875 48.367188 113.480469 C 48.386719 113.503906 48.378906 113.539062 48.382812 113.570312 C 48.382812 113.578125 48.390625 113.582031 48.390625 113.589844 C 48.285156 113.828125 48.160156 114.054688 48.015625 114.269531 C 47.914062 114.335938 47.816406 114.40625 47.714844 114.472656 C 47.390625 114.691406 47.066406 114.910156 46.710938 115.066406 C 46.71875 115.121094 46.726562 115.171875 46.734375 115.222656 C 47.203125 115.015625 47.652344 114.757812 48.066406 114.460938 C 48.089844 114.453125 48.113281 114.449219 48.136719 114.441406 C 48.085938 114.558594 48.15625 114.824219 48.28125 114.820312 C 48.34375 114.820312 48.394531 114.773438 48.457031 114.761719 C 48.515625 114.75 48.59375 114.816406 48.554688 114.863281 C 48.691406 114.882812 48.828125 114.90625 48.960938 114.925781 C 48.941406 114.972656 48.949219 115.054688 49 115.046875 C 48.976562 115.070312 48.957031 115.09375 48.9375 115.121094 C 49.019531 115.183594 49.042969 115.308594 48.992188 115.398438 C 49.050781 115.375 49.105469 115.355469 49.164062 115.335938 C 49.136719 115.542969 49.054688 115.742188 48.921875 115.90625 C 48.976562 115.898438 49.035156 115.890625 49.089844 115.882812 C 49.007812 116.203125 48.863281 116.503906 48.667969 116.765625 C 48.628906 116.820312 48.609375 116.921875 48.675781 116.925781 C 48.644531 117.023438 48.675781 117.140625 48.75 117.210938 C 48.699219 117.195312 48.65625 117.261719 48.667969 117.3125 C 48.679688 117.34375 48.695312 117.363281 48.71875 117.382812 C 48.710938 117.386719 48.707031 117.394531 48.695312 117.398438 C 48.625 117.4375 48.539062 117.4375 48.460938 117.46875 C 48.441406 117.464844 48.425781 117.460938 48.40625 117.460938 C 48.335938 117.457031 48.261719 117.476562 48.191406 117.46875 C 48.113281 117.460938 48.03125 117.425781 47.953125 117.4375 C 48.042969 117.554688 48.199219 117.613281 48.34375 117.582031 C 48.394531 117.570312 48.453125 117.550781 48.496094 117.582031 C 48.503906 117.585938 48.507812 117.59375 48.515625 117.597656 C 48.515625 117.601562 48.515625 117.605469 48.515625 117.613281 C 48.515625 117.648438 48.5 117.679688 48.5 117.71875 C 48.496094 117.773438 48.519531 117.832031 48.5625 117.867188 C 48.574219 117.878906 48.59375 117.890625 48.597656 117.910156 C 48.605469 117.925781 48.601562 117.941406 48.59375 117.960938 C 48.574219 118.007812 48.535156 118.054688 48.542969 118.109375 C 48.542969 118.128906 48.554688 118.144531 48.554688 118.164062 C 48.558594 118.191406 48.542969 118.21875 48.527344 118.246094 C 48.464844 118.335938 48.375 118.402344 48.289062 118.472656 C 48 118.515625 47.710938 118.566406 47.425781 118.621094 C 47.429688 118.632812 47.429688 118.644531 47.433594 118.65625 C 47.65625 118.648438 47.90625 118.613281 48.136719 118.554688 C 48.222656 118.53125 48.394531 118.613281 48.484375 118.613281 C 48.496094 118.621094 48.507812 118.625 48.519531 118.636719 C 48.585938 118.695312 48.644531 118.761719 48.699219 118.832031 C 48.707031 118.839844 48.714844 118.847656 48.722656 118.855469 C 48.730469 118.859375 48.738281 118.859375 48.742188 118.859375 C 48.730469 119.226562 48.5625 119.582031 48.410156 119.925781 C 47.84375 121.1875 47.320312 121.375 47.078125 122.738281 C 47.03125 123.007812 47.847656 124.097656 48.082031 123.949219 C 48.089844 123.949219 48.101562 123.949219 48.109375 123.949219 C 48.109375 124.808594 48.105469 125.664062 48.101562 126.523438 C 48.101562 127.292969 48.097656 128.0625 48.074219 128.824219 C 48.0625 129.261719 48.042969 129.699219 48.015625 130.128906 C 48.007812 130.265625 48 130.40625 48.007812 130.542969 C 48.015625 130.664062 48.035156 130.773438 48.046875 130.890625 C 48.066406 131.066406 48.070312 131.253906 48.074219 131.441406 C 48.09375 133.09375 48.117188 134.765625 48.003906 136.382812 C 47.972656 136.816406 47.933594 137.296875 48 137.691406 C 48.097656 138.246094 48.382812 138.3125 48.53125 137.878906 C 48.679688 137.441406 48.683594 136.679688 48.574219 136.152344 C 48.546875 136.03125 48.519531 135.917969 48.503906 135.78125 C 48.488281 135.640625 48.492188 135.488281 48.492188 135.34375 C 48.484375 135.007812 48.433594 134.695312 48.40625 134.367188 C 48.378906 134.042969 48.375 133.699219 48.371094 133.363281 C 48.351562 131.855469 48.335938 130.339844 48.390625 128.835938 C 48.398438 128.648438 48.40625 128.457031 48.394531 128.269531 C 48.390625 128.140625 48.375 128.011719 48.359375 127.886719 C 48.234375 126.609375 48.363281 125.246094 48.367188 123.910156 C 49.386719 123.671875 49.980469 122.273438 51.0625 121.324219 C 50.972656 124.195312 51.074219 127.359375 51.105469 130.109375 C 51.113281 130.804688 52.136719 130.847656 52.203125 130.15625 C 52.355469 128.515625 52.195312 126.609375 52.210938 125.273438 C 52.21875 124.46875 52.242188 123.851562 52.277344 123.355469 C 52.296875 123.300781 52.3125 123.246094 52.335938 123.191406 C 52.40625 123.035156 52.515625 122.902344 52.597656 122.75 C 52.675781 122.597656 52.722656 122.410156 52.644531 122.257812 C 52.625 122.214844 52.597656 122.175781 52.589844 122.128906 C 52.578125 122.019531 52.699219 121.933594 52.710938 121.824219 C 52.714844 121.773438 52.695312 121.71875 52.683594 121.667969 C 52.652344 121.554688 52.671875 121.425781 52.734375 121.324219 C 52.871094 121.3125 53.007812 121.386719 53.105469 121.484375 C 53.203125 121.585938 53.269531 121.714844 53.335938 121.835938 C 53.296875 121.488281 53.167969 121.148438 52.957031 120.863281 C 52.929688 120.824219 52.894531 120.785156 52.894531 120.734375 C 52.890625 120.675781 52.941406 120.621094 53 120.617188 C 52.953125 120.59375 52.90625 120.570312 52.855469 120.546875 C 52.890625 120.460938 52.960938 120.390625 53.046875 120.351562 C 53.054688 120.285156 52.972656 120.253906 52.902344 120.234375 C 52.921875 120.136719 52.941406 120.039062 52.960938 119.929688 C 53.007812 119.664062 52.808594 119.417969 52.542969 119.410156 L 52.535156 119.410156 C 52.164062 119.394531 51.957031 119.308594 51.929688 119.1875 C 51.984375 119.203125 52.039062 119.21875 52.09375 119.238281 C 52.058594 119.195312 52.039062 119.140625 52.035156 119.085938 C 52.058594 119.097656 52.085938 119.109375 52.109375 119.125 C 52.113281 119.011719 52.269531 118.941406 52.355469 119.007812 C 52.371094 119.019531 52.382812 119.03125 52.398438 119.035156 C 52.425781 119.035156 52.445312 119.007812 52.460938 118.984375 C 52.523438 118.894531 52.636719 118.839844 52.746094 118.847656 C 52.757812 118.867188 52.757812 118.886719 52.753906 118.910156 C 52.851562 118.90625 52.945312 118.917969 53.035156 118.945312 C 53.019531 118.988281 53.003906 119.027344 52.992188 119.070312 C 53.0625 119.074219 53.136719 119.078125 53.207031 119.078125 C 53.234375 119.082031 53.265625 119.085938 53.285156 119.109375 C 53.292969 119.121094 53.292969 119.132812 53.300781 119.148438 C 53.320312 119.191406 53.375 119.207031 53.425781 119.214844 C 53.472656 119.21875 53.527344 119.214844 53.566406 119.238281 C 53.605469 119.261719 53.628906 119.300781 53.65625 119.332031 C 53.6875 119.363281 53.730469 119.390625 53.769531 119.378906 C 53.8125 119.363281 53.832031 119.320312 53.867188 119.292969 C 53.898438 119.273438 53.941406 119.273438 53.976562 119.273438 C 54.097656 119.277344 54.214844 119.292969 54.328125 119.316406 C 54.3125 119.25 54.296875 119.179688 54.28125 119.109375 C 54.34375 119.054688 54.433594 119.042969 54.507812 119.007812 C 54.582031 118.972656 54.652344 118.890625 54.625 118.8125 C 54.613281 118.78125 54.582031 118.753906 54.5625 118.726562 C 54.546875 118.710938 54.539062 118.695312 54.527344 118.679688 C 54.609375 118.496094 54.648438 118.277344 54.652344 118.046875 C 54.660156 117.730469 54.917969 117.476562 55.234375 117.472656 C 55.546875 117.46875 55.859375 117.453125 56.167969 117.429688 C 56.316406 117.417969 56.46875 117.402344 56.59375 117.320312 C 56.667969 117.273438 56.71875 117.210938 56.757812 117.140625 C 56.769531 117.140625 56.78125 117.140625 56.796875 117.136719 C 56.976562 117.105469 57.160156 117.046875 57.339844 117.070312 C 57.464844 117.085938 57.589844 117.140625 57.714844 117.148438 C 58.117188 117.582031 58.871094 117.847656 59.390625 118.125 C 59.40625 118 59.28125 117.914062 59.171875 117.855469 C 58.917969 117.714844 58.675781 117.554688 58.453125 117.367188 C 58.285156 117.226562 58.128906 117.066406 57.96875 116.910156 C 57.964844 116.898438 57.960938 116.890625 57.957031 116.882812 C 57.816406 116.617188 57.605469 116.398438 57.449219 116.144531 C 57.339844 115.96875 57.257812 115.757812 57.257812 115.550781 C 57.355469 115.503906 57.464844 115.5 57.570312 115.570312 C 57.671875 115.3125 57.4375 114.988281 57.160156 115.007812 C 57.746094 115.007812 58.332031 115.214844 58.789062 115.589844 C 59.085938 115.835938 59.347656 116.160156 59.902344 115.949219"/></g><path d="M 46.199219 115.261719 C 46.109375 115.3125 46.023438 115.363281 45.9375 115.414062 C 45.882812 115.445312 45.820312 115.511719 45.859375 115.5625 C 46.058594 115.503906 46.246094 115.402344 46.402344 115.265625 C 46.371094 115.195312 46.265625 115.222656 46.199219 115.261719"/><path d="M 61.867188 119.214844 C 61.820312 119.1875 61.773438 119.160156 61.726562 119.132812 C 61.664062 119.101562 61.597656 119.078125 61.53125 119.050781 C 61.339844 118.96875 61.152344 118.875 60.964844 118.78125 C 60.910156 118.753906 60.855469 118.726562 60.800781 118.699219 C 60.5625 118.578125 60.328125 118.457031 60.09375 118.332031 C 60 118.28125 59.898438 118.226562 59.789062 118.238281 C 59.839844 118.386719 59.984375 118.480469 60.128906 118.539062 C 60.269531 118.597656 60.425781 118.636719 60.554688 118.722656 C 60.605469 118.757812 60.652344 118.800781 60.707031 118.824219 C 60.792969 118.859375 60.890625 118.84375 60.972656 118.882812 C 61.023438 118.90625 61.0625 118.949219 61.105469 118.988281 C 61.355469 119.226562 61.683594 119.378906 62.027344 119.421875 C 62.035156 119.328125 61.945312 119.261719 61.867188 119.214844"/><path d="M 49.601562 101.382812 C 49.628906 101.382812 49.660156 101.378906 49.6875 101.378906 C 49.765625 101.28125 49.75 101.140625 49.699219 101.023438 C 49.652344 100.910156 49.578125 100.804688 49.550781 100.683594 C 49.539062 100.632812 49.535156 100.582031 49.511719 100.535156 C 49.484375 100.492188 49.425781 100.460938 49.382812 100.488281 C 49.382812 100.644531 49.460938 100.789062 49.527344 100.929688 C 49.59375 101.070312 49.652344 101.234375 49.601562 101.382812"/><path d="M 54.453125 103.394531 C 54.519531 103.417969 54.585938 103.355469 54.628906 103.296875 C 54.695312 103.210938 54.761719 103.125 54.828125 103.035156 C 54.875 102.980469 54.917969 102.921875 54.933594 102.851562 C 54.953125 102.78125 54.941406 102.707031 54.964844 102.636719 C 54.992188 102.546875 55.066406 102.484375 55.121094 102.410156 C 55.195312 102.300781 55.226562 102.15625 55.175781 102.035156 C 55.121094 101.914062 54.980469 101.832031 54.855469 101.875 C 54.800781 101.953125 54.714844 102.007812 54.617188 102.023438 C 54.628906 102.304688 54.640625 102.597656 54.546875 102.867188 C 54.511719 102.960938 54.464844 103.050781 54.421875 103.140625 C 54.402344 103.183594 54.382812 103.230469 54.382812 103.277344 C 54.382812 103.328125 54.40625 103.378906 54.453125 103.394531"/><path d="M 57.40625 105.453125 C 57.378906 105.453125 57.351562 105.457031 57.320312 105.457031 C 57.320312 105.5625 57.378906 105.667969 57.464844 105.730469 C 57.484375 105.742188 57.5 105.75 57.511719 105.765625 C 57.53125 105.792969 57.535156 105.832031 57.5625 105.847656 C 57.601562 105.820312 57.617188 105.769531 57.609375 105.722656 C 57.582031 105.609375 57.425781 105.566406 57.40625 105.453125"/><path d="M 58.347656 116.160156 C 58.296875 116.144531 58.242188 116.125 58.1875 116.105469 C 58.109375 116.082031 58.027344 116.054688 57.953125 116.085938 C 57.914062 116.097656 57.875 116.136719 57.886719 116.179688 C 57.894531 116.210938 57.929688 116.234375 57.960938 116.238281 C 57.996094 116.242188 58.03125 116.234375 58.0625 116.230469 C 58.195312 116.21875 58.324219 116.28125 58.445312 116.332031 C 58.484375 116.347656 58.539062 116.359375 58.558594 116.324219 C 58.582031 116.28125 58.539062 116.238281 58.496094 116.21875 C 58.449219 116.195312 58.398438 116.179688 58.347656 116.160156"/><path d="M 59.480469 107.050781 C 59.367188 107.082031 59.253906 107.117188 59.160156 107.1875 C 59.128906 107.210938 59.097656 107.238281 59.082031 107.277344 C 59.066406 107.3125 59.070312 107.359375 59.097656 107.390625 C 59.125 107.417969 59.179688 107.421875 59.203125 107.390625 C 59.210938 107.375 59.214844 107.363281 59.222656 107.351562 C 59.246094 107.3125 59.296875 107.300781 59.339844 107.296875 C 59.46875 107.28125 59.601562 107.292969 59.730469 107.269531 C 59.8125 107.257812 59.894531 107.226562 59.945312 107.160156 C 59.957031 107.140625 59.96875 107.121094 59.96875 107.097656 C 59.964844 107.050781 59.917969 107.023438 59.875 107.007812 C 59.703125 106.949219 59.652344 107 59.480469 107.050781"/><path d="M 47.28125 117.34375 C 47.3125 117.371094 47.347656 117.398438 47.390625 117.398438 C 47.417969 117.394531 47.441406 117.375 47.464844 117.359375 C 47.757812 117.109375 47.863281 116.65625 48.207031 116.488281 C 48.300781 116.441406 48.40625 116.417969 48.488281 116.355469 C 48.652344 116.230469 48.667969 115.992188 48.652344 115.789062 C 48.640625 115.617188 48.597656 115.421875 48.449219 115.339844 C 48.332031 115.277344 48.195312 115.300781 48.0625 115.304688 C 47.960938 115.3125 47.855469 115.304688 47.757812 115.328125 C 47.65625 115.355469 47.558594 115.417969 47.527344 115.515625 C 47.496094 115.605469 47.53125 115.707031 47.519531 115.800781 C 47.5 115.929688 47.402344 116.03125 47.316406 116.128906 C 47.109375 116.355469 46.929688 116.664062 47.015625 116.960938 C 47.058594 117.113281 47.167969 117.234375 47.28125 117.34375"/><path d="M 46.089844 116.933594 C 45.894531 117.046875 45.703125 117.164062 45.511719 117.277344 C 45.511719 117.292969 45.511719 117.3125 45.511719 117.332031 C 45.585938 117.347656 45.664062 117.363281 45.738281 117.351562 C 45.816406 117.339844 45.890625 117.296875 45.914062 117.222656 C 45.917969 117.210938 45.917969 117.199219 45.925781 117.1875 C 45.933594 117.179688 45.941406 117.171875 45.953125 117.167969 C 45.976562 117.15625 46.007812 117.15625 46.035156 117.152344 C 46.203125 117.132812 46.367188 117.023438 46.410156 116.859375 C 46.304688 116.816406 46.1875 116.875 46.089844 116.933594"/><path d="M 51.820312 132.109375 C 51.808594 131.84375 51.429688 131.773438 51.34375 132.027344 C 51.34375 132.03125 51.339844 132.03125 51.339844 132.035156 C 51.261719 132.269531 51.296875 132.519531 51.316406 132.765625 C 51.355469 133.332031 51.277344 133.941406 50.914062 134.378906 C 50.746094 134.582031 50.523438 134.738281 50.355469 134.941406 C 50.183594 135.144531 50.070312 135.429688 50.167969 135.675781 C 50.253906 135.890625 50.464844 136.011719 50.667969 136.113281 C 51.070312 136.3125 51.5 136.484375 51.953125 136.386719 C 52.136719 136.347656 52.3125 136.253906 52.4375 136.109375 C 52.753906 135.75 52.613281 135.320312 52.480469 134.933594 C 52.160156 134.019531 51.859375 133.070312 51.820312 132.109375"/><path d="M 41.304688 105.527344 C 41.519531 105.617188 41.761719 105.589844 41.992188 105.558594 C 42.050781 105.550781 42.109375 105.546875 42.15625 105.515625 C 42.203125 105.484375 42.234375 105.421875 42.214844 105.367188 C 42.101562 105.253906 41.988281 105.140625 41.878906 105.027344 C 41.828125 104.976562 41.777344 104.925781 41.710938 104.894531 C 41.652344 104.871094 41.582031 104.863281 41.523438 104.839844 C 41.480469 104.820312 41.441406 104.789062 41.398438 104.765625 C 41.351562 104.746094 41.304688 104.734375 41.253906 104.726562 C 41.125 104.707031 40.988281 104.714844 40.859375 104.746094 C 40.796875 104.761719 40.722656 104.800781 40.730469 104.863281 C 40.734375 104.878906 40.738281 104.894531 40.746094 104.910156 C 40.871094 105.167969 41.042969 105.421875 41.304688 105.527344"/><path d="M 59.53125 101.78125 C 59.578125 101.816406 59.605469 101.871094 59.660156 101.898438 C 59.742188 101.945312 59.851562 101.890625 59.90625 101.8125 C 59.957031 101.730469 59.964844 101.628906 59.972656 101.535156 C 59.976562 101.480469 59.976562 101.417969 59.929688 101.390625 C 59.878906 101.355469 59.8125 101.402344 59.765625 101.441406 C 59.648438 101.546875 59.53125 101.652344 59.414062 101.757812 C 59.449219 101.746094 59.5 101.753906 59.53125 101.78125"/><path d="M 59.378906 101.789062 C 59.390625 101.78125 59.402344 101.769531 59.414062 101.757812 C 59.398438 101.765625 59.386719 101.773438 59.378906 101.789062"/><path d="M 62.480469 99.933594 C 62.40625 100.035156 62.386719 100.167969 62.371094 100.292969 C 62.359375 100.363281 62.351562 100.441406 62.398438 100.5 C 62.464844 100.585938 62.613281 100.554688 62.679688 100.46875 C 62.746094 100.378906 62.75 100.261719 62.75 100.152344 C 62.75 100.136719 62.75 100.121094 62.75 100.109375 C 62.777344 100.109375 62.808594 100.101562 62.835938 100.101562 C 62.917969 100.097656 62.984375 100.164062 63.058594 100.207031 C 63.175781 100.273438 63.324219 100.285156 63.449219 100.230469 C 63.464844 100.222656 63.476562 100.214844 63.488281 100.203125 C 63.523438 100.164062 63.492188 100.09375 63.507812 100.039062 C 63.511719 100.011719 63.53125 99.988281 63.539062 99.964844 C 63.582031 99.875 63.53125 99.757812 63.4375 99.726562 C 63.367188 99.699219 63.269531 99.710938 63.234375 99.640625 C 63.160156 99.648438 63.082031 99.652344 63.007812 99.65625 C 62.980469 99.660156 62.953125 99.660156 62.933594 99.648438 C 62.917969 99.640625 62.90625 99.625 62.894531 99.617188 C 62.851562 99.589844 62.792969 99.605469 62.757812 99.644531 C 62.726562 99.683594 62.714844 99.734375 62.703125 99.785156 C 62.703125 99.792969 62.703125 99.796875 62.703125 99.804688 C 62.617188 99.808594 62.53125 99.859375 62.480469 99.933594"/><path d="M 67.375 99.925781 C 67.273438 99.875 67.167969 99.824219 67.054688 99.828125 C 66.839844 99.832031 66.679688 100.015625 66.519531 100.160156 C 66.335938 100.332031 66.113281 100.464844 65.875 100.550781 C 65.535156 100.675781 65.101562 100.75 64.976562 101.089844 C 64.914062 101.265625 64.957031 101.457031 65.015625 101.632812 C 65.074219 101.800781 65.179688 101.992188 65.355469 102.007812 C 65.476562 102.019531 65.585938 101.949219 65.675781 101.871094 C 65.832031 101.726562 65.953125 101.539062 66.101562 101.382812 C 66.105469 101.382812 66.109375 101.382812 66.113281 101.382812 C 66.183594 101.382812 66.269531 101.359375 66.316406 101.410156 C 66.335938 101.429688 66.34375 101.453125 66.351562 101.480469 C 66.371094 101.535156 66.390625 101.589844 66.410156 101.644531 C 66.378906 102.726562 66.535156 103.816406 66.410156 104.890625 C 66.402344 104.957031 66.394531 105.027344 66.433594 105.082031 C 66.492188 105.167969 66.636719 105.152344 66.703125 105.070312 C 66.769531 104.988281 66.765625 104.871094 66.738281 104.769531 C 66.710938 104.667969 66.65625 104.574219 66.628906 104.472656 C 66.59375 104.359375 66.589844 104.242188 66.582031 104.125 C 66.5625 103.628906 66.558594 103.128906 66.550781 102.632812 C 66.546875 102.316406 66.542969 102.003906 66.539062 101.6875 C 66.542969 101.6875 66.542969 101.683594 66.542969 101.679688 C 66.554688 101.621094 66.59375 101.5625 66.605469 101.5 C 66.617188 101.457031 66.613281 101.410156 66.613281 101.363281 C 66.621094 101.242188 66.652344 101.125 66.6875 101.011719 C 66.699219 100.96875 66.714844 100.921875 66.730469 100.878906 C 66.996094 100.671875 67.234375 100.433594 67.4375 100.167969 C 67.46875 100.128906 67.5 100.082031 67.492188 100.03125 C 67.480469 99.976562 67.425781 99.949219 67.375 99.925781"/><g clip-path="url(#c)"><path d="M 69.265625 98.007812 C 69.226562 98.035156 69.199219 98.070312 69.171875 98.109375 C 69.101562 98.203125 69.046875 98.308594 69.011719 98.421875 C 69.097656 98.429688 69.1875 98.398438 69.246094 98.332031 C 69.304688 98.269531 69.328125 98.179688 69.390625 98.121094 C 69.460938 98.050781 69.578125 98.027344 69.625 97.9375 C 69.503906 97.898438 69.363281 97.925781 69.265625 98.007812"/></g><path d="M 69.191406 109.007812 C 69.246094 109.03125 69.3125 109.007812 69.355469 108.96875 C 69.394531 108.929688 69.421875 108.875 69.445312 108.820312 C 69.335938 108.832031 69.234375 108.90625 69.191406 109.007812"/><g clip-path="url(#d)"><path d="M 70.332031 101.910156 C 70.34375 101.960938 70.285156 102 70.289062 102.050781 C 70.296875 102.113281 70.382812 102.121094 70.4375 102.09375 C 70.484375 102.070312 70.527344 102.03125 70.554688 101.984375 C 70.480469 101.960938 70.40625 101.9375 70.332031 101.910156"/></g><g clip-path="url(#e)"><path d="M 62.445312 97.304688 C 62.464844 97.289062 62.488281 97.277344 62.5 97.257812 C 62.523438 97.226562 62.519531 97.179688 62.492188 97.152344 C 62.464844 97.125 62.417969 97.117188 62.386719 97.140625 C 62.359375 97.183594 62.328125 97.226562 62.296875 97.273438 C 62.246094 97.351562 62.191406 97.445312 62.214844 97.535156 C 62.222656 97.558594 62.257812 97.585938 62.273438 97.566406 C 62.292969 97.460938 62.355469 97.363281 62.445312 97.304688"/></g><path d="M 65.171875 103.292969 C 65.222656 103.320312 65.289062 103.300781 65.332031 103.269531 C 65.378906 103.234375 65.414062 103.183594 65.460938 103.152344 C 65.519531 103.105469 65.605469 103.058594 65.585938 102.988281 C 65.570312 102.941406 65.515625 102.90625 65.535156 102.863281 C 65.371094 102.960938 65.242188 103.113281 65.171875 103.292969"/><path d="M 61.355469 109.386719 C 61.351562 109.394531 61.351562 109.402344 61.351562 109.410156 C 61.355469 109.4375 61.390625 109.441406 61.417969 109.441406 C 61.484375 109.4375 61.578125 109.410156 61.570312 109.339844 C 61.570312 109.320312 61.558594 109.304688 61.542969 109.292969 C 61.523438 109.28125 61.503906 109.28125 61.480469 109.285156 C 61.425781 109.292969 61.375 109.332031 61.355469 109.386719"/><path d="M 64.179688 103.671875 C 64.109375 103.625 64.03125 103.59375 63.96875 103.539062 C 63.9375 103.507812 63.910156 103.472656 63.875 103.445312 C 63.757812 103.359375 63.582031 103.390625 63.480469 103.492188 C 63.375 103.59375 63.335938 103.746094 63.34375 103.890625 C 63.414062 103.929688 63.496094 103.957031 63.574219 103.972656 C 63.511719 104.039062 63.441406 104.101562 63.359375 104.144531 C 63.507812 104.285156 63.78125 104.238281 63.878906 104.0625 C 63.886719 104.042969 63.890625 104.019531 63.894531 104 C 64.046875 103.992188 64.195312 103.957031 64.320312 103.871094 C 64.316406 103.785156 64.25 103.71875 64.179688 103.671875"/><path d="M 61.382812 99.753906 C 61.386719 99.570312 61.445312 99.394531 61.277344 99.261719 C 61.183594 99.320312 61.003906 99.152344 60.945312 99.347656 C 60.8125 99.496094 60.828125 99.632812 60.964844 99.757812 C 61.066406 99.917969 61.257812 99.804688 61.382812 99.753906"/><path d="M 39.132812 114.746094 C 37.800781 115.019531 37.199219 115.160156 37.207031 115.1875 C 36.902344 115.28125 38.332031 115.003906 39.152344 114.84375 C 40.066406 114.636719 41.183594 114.398438 41.074219 114.382812 C 40.359375 114.523438 40.351562 114.484375 39.132812 114.746094"/><path d="M 43.917969 120.21875 C 43.820312 120.273438 43.644531 120.109375 43.585938 120.304688 C 43.449219 120.453125 43.46875 120.589844 43.601562 120.714844 C 43.703125 120.875 43.894531 120.761719 44.023438 120.710938 C 44.023438 120.527344 44.082031 120.351562 43.917969 120.21875"/><path d="M 64.765625 106.5 C 64.695312 106.6875 64.382812 106.917969 64.691406 107.078125 C 65.472656 107.195312 65.648438 106.214844 66.148438 105.925781 L 65.898438 105.988281 C 65.574219 106.25 65.0625 106.109375 64.765625 106.5"/><path d="M 52.316406 105.34375 C 52.445312 105.394531 52.609375 105.304688 52.71875 105.207031 C 52.734375 105.042969 52.90625 104.894531 52.703125 104.753906 C 52.527344 104.734375 52.402344 104.898438 52.277344 105.03125 C 52.207031 105.128906 52.195312 105.246094 52.316406 105.34375"/><path d="M 63.101562 107.644531 C 62.96875 107.746094 63.109375 107.910156 63.230469 108.011719 C 63.394531 108 63.550781 107.980469 63.632812 107.824219 C 63.679688 107.523438 63.230469 107.570312 63.101562 107.644531"/><path d="M 44.414062 114.839844 C 44.316406 114.914062 44.417969 115.03125 44.507812 115.101562 C 44.625 115.09375 44.738281 115.078125 44.796875 114.96875 C 44.828125 114.753906 44.507812 114.785156 44.414062 114.839844"/><path d="M 57.199219 103.707031 C 57.679688 103.59375 57.730469 103.128906 57.851562 102.773438 C 57.90625 102.761719 58.085938 102.734375 57.972656 102.605469 C 57.9375 102.617188 57.902344 102.652344 57.859375 102.613281 C 57.828125 102.546875 57.90625 102.492188 57.929688 102.421875 C 57.644531 102.527344 57.488281 102.675781 57.261719 102.851562 L 57.253906 102.808594 L 56.933594 103.355469 C 56.933594 103.507812 57.03125 103.65625 57.199219 103.707031"/><path d="M 41.566406 117.625 C 41.511719 117.609375 41.347656 117.542969 41.375 117.707031 C 41.410156 117.71875 41.460938 117.707031 41.476562 117.761719 C 41.464844 117.835938 41.371094 117.84375 41.316406 117.886719 C 41.613281 117.945312 41.824219 117.902344 42.113281 117.867188 L 42.09375 117.910156 L 42.652344 117.609375 C 42.730469 117.480469 42.722656 117.300781 42.605469 117.171875 C 42.136719 117.019531 41.855469 117.386719 41.566406 117.625"/><path d="M 62.734375 111.390625 C 62.570312 111.484375 62.273438 111.574219 62.328125 111.832031 C 62.308594 111.933594 62.429688 111.910156 62.488281 111.949219 C 62.683594 111.886719 62.804688 111.753906 62.863281 111.542969 C 62.847656 111.480469 62.679688 111.488281 62.734375 111.390625"/><path d="M 63.496094 105.742188 C 63.402344 105.738281 63.332031 105.625 63.378906 105.554688 L 63.246094 105.59375 C 63.1875 105.277344 63.007812 105.828125 62.855469 105.511719 C 62.851562 105.683594 62.695312 105.6875 62.621094 105.828125 C 62.582031 105.976562 62.558594 106.148438 62.714844 106.277344 C 62.875 106.394531 63.03125 106.375 63.160156 106.296875 C 63.359375 106.1875 63.535156 105.929688 63.496094 105.742188"/><path d="M 43.722656 117.015625 C 43.742188 117.03125 43.765625 117.042969 43.792969 117.042969 C 43.84375 116.976562 43.941406 116.957031 44.027344 116.957031 C 44.113281 116.960938 44.199219 116.976562 44.28125 116.964844 C 44.40625 116.945312 44.515625 116.855469 44.5625 116.742188 C 44.277344 116.78125 43.996094 116.84375 43.722656 116.929688 C 43.722656 116.957031 43.722656 116.988281 43.722656 117.015625"/><path d="M 39.351562 117.585938 C 39.082031 117.691406 38.8125 117.792969 38.542969 117.898438 C 38.539062 117.957031 38.578125 118.015625 38.632812 118.046875 C 38.683594 118.078125 38.746094 118.089844 38.808594 118.09375 C 38.875 118.097656 38.945312 118.101562 39.003906 118.0625 C 39.074219 118.015625 39.101562 117.921875 39.160156 117.859375 C 39.21875 117.800781 39.304688 117.78125 39.386719 117.761719 C 39.46875 117.746094 39.550781 117.734375 39.617188 117.683594 C 39.6875 117.636719 39.726562 117.542969 39.6875 117.46875 C 39.574219 117.5 39.460938 117.542969 39.351562 117.585938"/><g fill="#FBFBF3"><g><g><path d="M 3.40625 0 L 2.125 -4.515625 L 2.09375 -4.515625 C 2.144531 -3.742188 2.171875 -3.144531 2.171875 -2.71875 L 2.171875 0 L 0.671875 0 L 0.671875 -6.265625 L 2.9375 -6.265625 L 4.234375 -1.8125 L 4.28125 -1.8125 L 5.5625 -6.265625 L 7.8125 -6.265625 L 7.8125 0 L 6.265625 0 L 6.265625 -2.75 C 6.265625 -2.894531 6.265625 -3.050781 6.265625 -3.21875 C 6.265625 -3.394531 6.285156 -3.820312 6.328125 -4.5 L 6.28125 -4.5 L 5.015625 0 Z M 3.40625 0" transform="translate(23.521 136.294)"/></g></g><g><g><path d="M 4.53125 0 L 4.21875 -1.171875 L 2.171875 -1.171875 L 1.859375 0 L 0 0 L 2.046875 -6.296875 L 4.3125 -6.296875 L 6.375 0 Z M 3.859375 -2.5625 L 3.59375 -3.59375 C 3.53125 -3.820312 3.453125 -4.117188 3.359375 -4.484375 C 3.273438 -4.847656 3.21875 -5.109375 3.1875 -5.265625 C 3.15625 -5.117188 3.101562 -4.875 3.03125 -4.53125 C 2.957031 -4.195312 2.789062 -3.539062 2.53125 -2.5625 Z M 3.859375 -2.5625" transform="translate(32.011 136.294)"/></g></g><g><g><path d="M 2.375 -2.28125 L 2.375 0 L 0.671875 0 L 0.671875 -6.265625 L 2.734375 -6.265625 C 4.429688 -6.265625 5.28125 -5.648438 5.28125 -4.421875 C 5.28125 -3.691406 4.925781 -3.128906 4.21875 -2.734375 L 6.046875 0 L 4.125 0 L 2.796875 -2.28125 Z M 2.375 -3.546875 L 2.6875 -3.546875 C 3.28125 -3.546875 3.578125 -3.8125 3.578125 -4.34375 C 3.578125 -4.769531 3.285156 -4.984375 2.703125 -4.984375 L 2.375 -4.984375 Z M 2.375 -3.546875" transform="translate(38.387 136.294)"/></g></g><g><g><path d="M 6.03125 0 L 4.125 0 L 2.875 -2.390625 L 2.375 -2.09375 L 2.375 0 L 0.671875 0 L 0.671875 -6.265625 L 2.375 -6.265625 L 2.375 -3.546875 C 2.46875 -3.710938 2.644531 -3.976562 2.90625 -4.34375 L 4.21875 -6.265625 L 6.0625 -6.265625 L 4.09375 -3.453125 Z M 6.03125 0" transform="translate(44.33 136.294)"/></g></g><g><g><path d="M 3.40625 0 L 2.125 -4.515625 L 2.09375 -4.515625 C 2.144531 -3.742188 2.171875 -3.144531 2.171875 -2.71875 L 2.171875 0 L 0.671875 0 L 0.671875 -6.265625 L 2.9375 -6.265625 L 4.234375 -1.8125 L 4.28125 -1.8125 L 5.5625 -6.265625 L 7.8125 -6.265625 L 7.8125 0 L 6.265625 0 L 6.265625 -2.75 C 6.265625 -2.894531 6.265625 -3.050781 6.265625 -3.21875 C 6.265625 -3.394531 6.285156 -3.820312 6.328125 -4.5 L 6.28125 -4.5 L 5.015625 0 Z M 3.40625 0" transform="translate(52.644 136.294)"/></g></g><g><g><path d="M 4.53125 0 L 4.21875 -1.171875 L 2.171875 -1.171875 L 1.859375 0 L 0 0 L 2.046875 -6.296875 L 4.3125 -6.296875 L 6.375 0 Z M 3.859375 -2.5625 L 3.59375 -3.59375 C 3.53125 -3.820312 3.453125 -4.117188 3.359375 -4.484375 C 3.273438 -4.847656 3.21875 -5.109375 3.1875 -5.265625 C 3.15625 -5.117188 3.101562 -4.875 3.03125 -4.53125 C 2.957031 -4.195312 2.789062 -3.539062 2.53125 -2.5625 Z M 3.859375 -2.5625" transform="translate(61.133 136.294)"/></g></g><g><g><path d="M 6.640625 0 L 4.421875 0 L 2.140625 -4.421875 L 2.09375 -4.421875 C 2.144531 -3.722656 2.171875 -3.191406 2.171875 -2.828125 L 2.171875 0 L 0.671875 0 L 0.671875 -6.265625 L 2.890625 -6.265625 L 5.171875 -1.90625 L 5.203125 -1.90625 C 5.160156 -2.539062 5.140625 -3.050781 5.140625 -3.4375 L 5.140625 -6.265625 L 6.640625 -6.265625 Z M 6.640625 0" transform="translate(67.509 136.294)"/></g></g><g><g><path d="M 4.78125 -1.90625 C 4.78125 -1.519531 4.679688 -1.175781 4.484375 -0.875 C 4.285156 -0.570312 4 -0.335938 3.625 -0.171875 C 3.25 -0.00390625 2.8125 0.078125 2.3125 0.078125 C 1.894531 0.078125 1.546875 0.0507812 1.265625 0 C 0.984375 -0.0625 0.691406 -0.164062 0.390625 -0.3125 L 0.390625 -1.8125 C 0.710938 -1.644531 1.046875 -1.515625 1.390625 -1.421875 C 1.742188 -1.335938 2.066406 -1.296875 2.359375 -1.296875 C 2.609375 -1.296875 2.789062 -1.335938 2.90625 -1.421875 C 3.019531 -1.503906 3.078125 -1.617188 3.078125 -1.765625 C 3.078125 -1.847656 3.050781 -1.921875 3 -1.984375 C 2.957031 -2.046875 2.882812 -2.109375 2.78125 -2.171875 C 2.675781 -2.242188 2.398438 -2.378906 1.953125 -2.578125 C 1.546875 -2.765625 1.238281 -2.945312 1.03125 -3.125 C 0.820312 -3.300781 0.664062 -3.5 0.5625 -3.71875 C 0.46875 -3.945312 0.421875 -4.21875 0.421875 -4.53125 C 0.421875 -5.101562 0.628906 -5.550781 1.046875 -5.875 C 1.472656 -6.195312 2.054688 -6.359375 2.796875 -6.359375 C 3.441406 -6.359375 4.101562 -6.207031 4.78125 -5.90625 L 4.25 -4.59375 C 3.664062 -4.863281 3.160156 -5 2.734375 -5 C 2.515625 -5 2.351562 -4.957031 2.25 -4.875 C 2.15625 -4.800781 2.109375 -4.707031 2.109375 -4.59375 C 2.109375 -4.476562 2.171875 -4.367188 2.296875 -4.265625 C 2.421875 -4.171875 2.765625 -3.992188 3.328125 -3.734375 C 3.867188 -3.492188 4.242188 -3.234375 4.453125 -2.953125 C 4.671875 -2.671875 4.78125 -2.320312 4.78125 -1.90625 Z M 4.78125 -1.90625" transform="translate(74.832 136.294)"/></g></g><g><g><path d="M 6.546875 -3.140625 C 6.546875 -2.085938 6.285156 -1.285156 5.765625 -0.734375 C 5.242188 -0.191406 4.488281 0.078125 3.5 0.078125 C 2.507812 0.078125 1.753906 -0.191406 1.234375 -0.734375 C 0.710938 -1.285156 0.453125 -2.09375 0.453125 -3.15625 C 0.453125 -4.195312 0.710938 -4.992188 1.234375 -5.546875 C 1.753906 -6.097656 2.507812 -6.375 3.5 -6.375 C 4.5 -6.375 5.253906 -6.097656 5.765625 -5.546875 C 6.285156 -5.003906 6.546875 -4.203125 6.546875 -3.140625 Z M 2.234375 -3.140625 C 2.234375 -1.929688 2.65625 -1.328125 3.5 -1.328125 C 3.925781 -1.328125 4.242188 -1.472656 4.453125 -1.765625 C 4.660156 -2.054688 4.765625 -2.515625 4.765625 -3.140625 C 4.765625 -3.765625 4.65625 -4.226562 4.4375 -4.53125 C 4.226562 -4.832031 3.914062 -4.984375 3.5 -4.984375 C 2.65625 -4.984375 2.234375 -4.367188 2.234375 -3.140625 Z M 2.234375 -3.140625" transform="translate(79.9 136.294)"/></g></g><g><g><path d="M 6.640625 0 L 4.421875 0 L 2.140625 -4.421875 L 2.09375 -4.421875 C 2.144531 -3.722656 2.171875 -3.191406 2.171875 -2.828125 L 2.171875 0 L 0.671875 0 L 0.671875 -6.265625 L 2.890625 -6.265625 L 5.171875 -1.90625 L 5.203125 -1.90625 C 5.160156 -2.539062 5.140625 -3.050781 5.140625 -3.4375 L 5.140625 -6.265625 L 6.640625 -6.265625 Z M 6.640625 0" transform="translate(86.898 136.294)"/></g></g></g></svg>